<svg xmlns="http://www.w3.org/2000/svg" width="24.455" height="24.348" viewBox="0 0 24.455 24.348">
  <g id="Group_577" data-name="Group 577" transform="translate(-1310.994 -921.737)">
    <path id="Path_192" data-name="Path 192" d="M4998.95-4087.19c.2-.828,3.609-3.377,3.609-4.139s-3.941-4.967-4.6-4.934-4.437,3.443-3.907,6.424,3.874,7.186,5.861,9.173,7.914,7.119,10.729,6.722,6.027-3.212,5.795-4.4-4.47-4.5-5-4.5-3.477,4.206-4.338,3.974a15.4,15.4,0,0,1-4.967-3.378C5000.639-4083.879,4998.752-4086.362,4998.95-4087.19Z" transform="translate(-3682 5019)" fill="none" stroke="#707070" stroke-linecap="round" stroke-width="2"/>
    <path id="Path_193" data-name="Path 193" d="M4999.016-4092.521l1.655,1.595" transform="translate(-3681.237 5019.855)" fill="none" stroke="#707070" stroke-linecap="round" stroke-width="1"/>
    <path id="Path_196" data-name="Path 196" d="M4999.016-4092.521l2,2.037" transform="translate(-3668 5033)" fill="none" stroke="#707070" stroke-linecap="round" stroke-width="1"/>
    <path id="Path_194" data-name="Path 194" d="M4998.145-4093.4l-.619-.616" transform="translate(-3460.519 5275.324) rotate(-3)" fill="none" stroke="#707070" stroke-linecap="round" stroke-width="1"/>
    <path id="Path_195" data-name="Path 195" d="M4998.52-4093.018l-.994-.993" transform="translate(-3669 5032)" fill="none" stroke="#707070" stroke-linecap="round" stroke-width="1"/>
  </g>
</svg>
