<svg xmlns="http://www.w3.org/2000/svg" xmlns:xlink="http://www.w3.org/1999/xlink" width="9.864" height="9.455" viewBox="0 0 9.864 9.455"><defs><linearGradient id="a" x1="0.5" y1="0.258" x2="0.5" y2="1.297" gradientUnits="objectBoundingBox"><stop offset="0" stop-color="#ff0"/><stop offset="1" stop-color="#ffb300"/></linearGradient></defs><path d="M6.621.313,5.467,2.652l-2.581.376a.566.566,0,0,0-.313.965l1.867,1.82L4,8.383a.565.565,0,0,0,.82.6L7.128,7.765,9.437,8.978a.565.565,0,0,0,.82-.6l-.442-2.57,1.867-1.82a.566.566,0,0,0-.313-.965L8.788,2.652,7.635.313A.566.566,0,0,0,6.621.313Z" transform="translate(-2.196 0.201)" stroke="#ffd500" stroke-linecap="round" stroke-width="0.4" fill="url(#a)"/></svg>