<svg xmlns="http://www.w3.org/2000/svg" width="20.177" height="17.239" viewBox="0 0 20.177 17.239">
  <g id="Group_1035" data-name="Group 1035" transform="translate(-318.26 -430.296)">
    <g id="Group_1028" data-name="Group 1028">
      <path id="Path_466" data-name="Path 466" d="M331.293,447.535a1.834,1.834,0,0,1-.723-.152,1.755,1.755,0,0,1-1.049-1.954l.649-3.579-2.682-.845a2.15,2.15,0,0,1-1.1-3.3l4.752-6.661a1.783,1.783,0,0,1,3.217,1.277l-.437,3.2,2.895.731a2.148,2.148,0,0,1,1.2,3.359l-5.3,7.191A1.755,1.755,0,0,1,331.293,447.535Zm.962-14.61-4.241,5.944a.141.141,0,0,0-.021.133.147.147,0,0,0,.1.1l4.36,1.373-.795,4.394,4.75-6.438a.145.145,0,0,0,.021-.139.141.141,0,0,0-.1-.094l-4.628-1.168Z" fill="#098b41"/>
    </g>
    <g id="Group_1029" data-name="Group 1029">
      <path id="Path_467" data-name="Path 467" d="M326.538,434.685H319.26a1,1,0,0,1,0-2h7.278a1,1,0,0,1,0,2Z" fill="#098b41"/>
    </g>
    <g id="Group_1030" data-name="Group 1030">
      <path id="Path_468" data-name="Path 468" d="M323.388,440.625H319.26a1,1,0,0,1,0-2h4.128a1,1,0,0,1,0,2Z" fill="#098b41"/>
    </g>
    <g id="Group_1031" data-name="Group 1031">
      <path id="Path_469" data-name="Path 469" d="M326.985,446.565H319.26a1,1,0,0,1,0-2h7.725a1,1,0,0,1,0,2Z" fill="#098b41"/>
    </g>
  </g>
</svg>
