<svg xmlns="http://www.w3.org/2000/svg" width="19" height="19.43" viewBox="0 0 19 19.43">
  <g id="Group_582" data-name="Group 582" transform="translate(-429 -585.57)">
    <path id="Path_223" data-name="Path 223" d="M2,0H15a2,2,0,0,1,2,2V14a2,2,0,0,1-2,2H2a2,2,0,0,1-2-2V2A2,2,0,0,1,2,0Z" transform="translate(430 588)" fill="none" stroke="#0f9b66" stroke-linecap="round" stroke-width="2"/>
    <g id="Union_30" data-name="Union 30" transform="translate(433.284 590.571)" fill="#0f9b66">
      <path d="M 5.101990222930908 10.97657680511475 C 4.964260578155518 10.97657680511475 4.835840225219727 10.92172718048096 4.74038028717041 10.82212734222412 L 0.4251203835010529 6.313376903533936 C 0.2128903716802597 6.091746807098389 0.2957003712654114 5.841957092285156 0.3261403739452362 5.770677089691162 C 0.3565403819084167 5.699466705322266 0.4795503616333008 5.46709680557251 0.7857003808021545 5.46709680557251 L 2.541680335998535 5.46709680557251 L 3.044090270996094 5.46709680557251 L 3.041670322418213 4.964696884155273 L 3.041660308837891 4.961426734924316 L 3.041600465774536 4.957725048065186 L 3.041600465774536 1.999796986579895 C 3.041600465774536 1.724146962165833 3.265850305557251 1.499896883964539 3.541500329971313 1.499896883964539 L 6.662700176239014 1.499896883964539 C 6.938350200653076 1.499896883964539 7.162600517272949 1.724146962165833 7.162600517272949 1.999796986579895 L 7.162600517272949 4.95899772644043 L 7.162530422210693 4.964696884155273 L 7.160110473632813 5.46709680557251 L 7.662520408630371 5.46709680557251 L 9.417600631713867 5.46709680557251 C 9.724480628967285 5.46709680557251 9.847630500793457 5.699666976928711 9.878060340881348 5.770946979522705 C 9.908480644226074 5.842176914215088 9.991240501403809 6.091816902160645 9.779170036315918 6.313286781311035 L 5.462720394134521 10.82233715057373 C 5.36754035949707 10.92187690734863 5.239500522613525 10.97657680511475 5.101990222930908 10.97657680511475 Z M 6.662700176239014 -0.5387030839920044 L 3.541500329971313 -0.5387030839920044 C 3.265850305557251 -0.5387030839920044 3.041600465774536 -0.7629530429840088 3.041600465774536 -1.038603067398071 L 3.041600465774536 -4.000503063201904 C 3.041600465774536 -4.276153087615967 3.265850305557251 -4.500402927398682 3.541500329971313 -4.500402927398682 L 6.662700176239014 -4.500402927398682 C 6.938350200653076 -4.500402927398682 7.162600517272949 -4.276153087615967 7.162600517272949 -4.000503063201904 L 7.162600517272949 -1.038603067398071 C 7.162600517272949 -0.7629530429840088 6.938350200653076 -0.5387030839920044 6.662700176239014 -0.5387030839920044 Z" stroke="none"/>
      <path d="M 5.101552963256836 10.47656345367432 L 5.1015305519104 10.47658729553223 L 9.41804027557373 5.967476844787598 C 9.418131828308105 5.967381477355957 9.418225288391113 5.967288494110107 9.41814136505127 5.967098236083984 C 9.417963981628418 5.967097282409668 9.417783737182617 5.96709680557251 9.417600631713867 5.96709680557251 L 6.657700538635254 5.96709680557251 L 6.662600517272949 4.95632791519165 L 6.662700176239014 1.999896883964539 L 3.541600465774536 1.999796986579895 L 3.541670322418213 4.962286949157715 L 3.546500444412231 5.96709680557251 L 0.7859434485435486 5.96709680557251 C 0.7858548164367676 5.967306137084961 0.7861624956130981 5.967471122741699 0.7863403558731079 5.967657089233398 L 5.100890159606934 10.47647666931152 C 5.100970268249512 10.4764986038208 5.101207733154297 10.47654151916504 5.101552963256836 10.47656345367432 M 6.662600517272949 -1.038703083992004 L 6.662700176239014 -4.000402927398682 L 3.541600465774536 -4.000503063201904 L 3.541500329971313 -1.038703083992004 L 6.662600517272949 -1.038703083992004 M 5.101990222930908 11.47657680511475 C 4.839300155639648 11.47657680511475 4.576500415802002 11.37374687194824 4.379400253295898 11.1680965423584 L 0.06390037387609482 6.659096717834473 C -0.5453996062278748 6.022797107696533 -0.0944996252655983 4.96709680557251 0.7857003808021545 4.96709680557251 L 2.541680335998535 4.96709680557251 C 2.541670322418213 4.965016841888428 2.541600465774536 4.962886810302734 2.541600465774536 4.96079683303833 L 2.541600465774536 1.999796986579895 C 2.541600465774536 1.447196960449219 2.988900423049927 0.9998969435691833 3.541500329971313 0.9998969435691833 L 6.662700176239014 0.9998969435691833 C 7.214400291442871 0.9998969435691833 7.662600517272949 1.447196960449219 7.662600517272949 1.999796986579895 L 7.662600517272949 4.96079683303833 C 7.662600517272949 4.962886810302734 7.662530422210693 4.965016841888428 7.662520408630371 4.96709680557251 L 9.417600631713867 4.96709680557251 C 10.2987003326416 4.96709680557251 10.74960041046143 6.022797107696533 10.14030075073242 6.659096717834473 L 5.82390022277832 11.1680965423584 C 5.627250194549561 11.37374687194824 5.364670276641846 11.47657680511475 5.101990222930908 11.47657680511475 Z M 6.662700176239014 -0.0387030616402626 L 3.541500329971313 -0.0387030616402626 C 2.988900423049927 -0.0387030616402626 2.541600465774536 -0.4869030714035034 2.541600465774536 -1.038603067398071 L 2.541600465774536 -4.000503063201904 C 2.541600465774536 -4.553102970123291 2.988900423049927 -5.000402927398682 3.541500329971313 -5.000402927398682 L 6.662700176239014 -5.000402927398682 C 7.214400291442871 -5.000402927398682 7.662600517272949 -4.553102970123291 7.662600517272949 -4.000503063201904 L 7.662600517272949 -1.038603067398071 C 7.662600517272949 -0.4869030714035034 7.214400291442871 -0.0387030616402626 6.662700176239014 -0.0387030616402626 Z" stroke="none" fill="#0f9b66"/>
    </g>
  </g>
</svg>
