<svg xmlns="http://www.w3.org/2000/svg" width="24.224" height="18.022" viewBox="0 0 24.224 18.022">
  <g id="Group_968" data-name="Group 968" transform="translate(-289.912 -320.111)">
    <g id="Group_965" data-name="Group 965" transform="translate(289.912 328.431)">
      <path id="Path_458" data-name="Path 458" d="M296.807,327.876h-5.181a1.693,1.693,0,0,0-1.662,1.225,1.652,1.652,0,0,0,1.6,2.072h5.257a1.617,1.617,0,0,0,1.567-2.065l-.011-.034A1.644,1.644,0,0,0,296.807,327.876Z" transform="translate(-289.912 -327.876)" fill="#098b41"/>
    </g>
    <g id="Group_966" data-name="Group 966" transform="translate(289.912 322.028)">
      <path id="Path_459" data-name="Path 459" d="M297.221,321.9h-5.594a1.693,1.693,0,0,0-1.662,1.225,1.652,1.652,0,0,0,1.6,2.072h5.646a1.638,1.638,0,0,0,1.495-.993l.016-.035A1.622,1.622,0,0,0,297.221,321.9Z" transform="translate(-289.912 -321.9)" fill="#098b41"/>
    </g>
    <g id="Group_967" data-name="Group 967" transform="translate(289.912 334.836)">
      <path id="Path_460" data-name="Path 460" d="M299.686,333.853h-8.06a1.691,1.691,0,0,0-1.662,1.225,1.652,1.652,0,0,0,1.6,2.072h8.126a1.624,1.624,0,0,0,1.623-1.627v-.049A1.623,1.623,0,0,0,299.686,333.853Z" transform="translate(-289.912 -333.853)" fill="#098b41"/>
    </g>
    <path id="Path_461" data-name="Path 461" d="M306.253,320.111a7.228,7.228,0,0,0-5.112,12.339l.075.076a2.238,2.238,0,0,1,.656,1.6v4.006h8.765v-4.006a2.3,2.3,0,0,1,.724-1.665,7.229,7.229,0,0,0-5.108-12.346Zm-1.362,8.1h-.536a.535.535,0,0,1-.378-.914.511.511,0,0,1,.369-.158.578.578,0,0,1,.214.042.525.525,0,0,1,.331.5Zm1.952,7.776H305.7v-6.972h1.149Zm2.935-4.974a4.359,4.359,0,0,0-1.285,3.111v1.863h-.846v-6.972h.536a1.339,1.339,0,1,0-1.339-1.338v.535H305.7v-.535a1.339,1.339,0,1,0-1.339,1.338h.536v6.972h-.876v-1.863a4.429,4.429,0,0,0-1.352-3.18,5.086,5.086,0,1,1,8.678-3.6A5.132,5.132,0,0,1,309.779,331.011Zm-2.131-2.8v-.535a.535.535,0,1,1,.536.535Z" transform="translate(0.652)" fill="#098b41"/>
  </g>
</svg>
