<svg xmlns="http://www.w3.org/2000/svg" width="21" height="15" viewBox="0 0 21 15">
  <g id="Group_787" data-name="Group 787" transform="translate(-1675 -1471)">
    <g id="Rectangle_1534" data-name="Rectangle 1534" transform="translate(1676 1471)" fill="none" stroke="#707070" stroke-width="1">
      <path d="M3,0H18a0,0,0,0,1,0,0V6a0,0,0,0,1,0,0H3A3,3,0,0,1,0,3V3A3,3,0,0,1,3,0Z" stroke="none"/>
      <path d="M3,.5H17.5a0,0,0,0,1,0,0v5a0,0,0,0,1,0,0H3A2.5,2.5,0,0,1,.5,3V3A2.5,2.5,0,0,1,3,.5Z" fill="none"/>
    </g>
    <g id="Rectangle_1535" data-name="Rectangle 1535" transform="translate(1678 1476)" fill="none" stroke="#707070" stroke-width="1">
      <path d="M2,0H17a0,0,0,0,1,0,0V4a0,0,0,0,1,0,0H2A2,2,0,0,1,0,2V2A2,2,0,0,1,2,0Z" stroke="none"/>
      <path d="M2,.5H16.5a0,0,0,0,1,0,0v3a0,0,0,0,1,0,0H2A1.5,1.5,0,0,1,.5,2V2A1.5,1.5,0,0,1,2,.5Z" fill="none"/>
    </g>
    <g id="Rectangle_1536" data-name="Rectangle 1536" transform="translate(1675 1479)" fill="none" stroke="#707070" stroke-width="1">
      <path d="M3.5,0H20a0,0,0,0,1,0,0V7a0,0,0,0,1,0,0H3.5A3.5,3.5,0,0,1,0,3.5v0A3.5,3.5,0,0,1,3.5,0Z" stroke="none"/>
      <path d="M3.5.5h16a0,0,0,0,1,0,0v6a0,0,0,0,1,0,0H3.5a3,3,0,0,1-3-3v0A3,3,0,0,1,3.5.5Z" fill="none"/>
    </g>
    <rect id="Rectangle_1537" data-name="Rectangle 1537" width="3" height="4" transform="translate(1692 1472)" fill="#fff"/>
    <rect id="Rectangle_1538" data-name="Rectangle 1538" width="4" height="5" transform="translate(1692 1480)" fill="#fff"/>
    <rect id="Rectangle_1539" data-name="Rectangle 1539" width="4" height="2" transform="translate(1692 1477)" fill="#fff"/>
    <rect id="Rectangle_1540" data-name="Rectangle 1540" width="6" height="4" transform="translate(1682 1478)" fill="#fff"/>
    <path id="Union_25" data-name="Union 25" d="M-3680,5022l-2,1.293V5020a1,1,0,0,1,1-1h2a1,1,0,0,1,1,1v3.3Z" transform="translate(5365 -3541)" fill="#707070"/>
  </g>
</svg>
