<svg xmlns="http://www.w3.org/2000/svg" width="29" height="20" viewBox="0 0 29 20">
  <g id="Group_788" data-name="Group 788" transform="translate(-1671 -1521)">
    <g id="Rectangle_1542" data-name="Rectangle 1542" transform="translate(1679 1528)" fill="#fff" stroke="#707070" stroke-width="1">
      <rect width="3" height="8" stroke="none"/>
      <rect x="0.5" y="0.5" width="2" height="7" fill="none"/>
    </g>
    <g id="Rectangle_1543" data-name="Rectangle 1543" transform="translate(1689 1528)" fill="#fff" stroke="#707070" stroke-width="1">
      <rect width="3" height="8" stroke="none"/>
      <rect x="0.5" y="0.5" width="2" height="7" fill="none"/>
    </g>
    <g id="Rectangle_1546" data-name="Rectangle 1546" transform="translate(1684 1528)" fill="#fff" stroke="#707070" stroke-width="1">
      <rect width="3" height="8" stroke="none"/>
      <rect x="0.5" y="0.5" width="2" height="7" fill="none"/>
    </g>
    <g id="Rectangle_1544" data-name="Rectangle 1544" transform="translate(1694.5 1535.009) rotate(90)" fill="#fff" stroke="#707070" stroke-width="1">
      <rect width="3.491" height="18" rx="1.746" stroke="none"/>
      <rect x="0.5" y="0.5" width="2.491" height="17" rx="1.246" fill="none"/>
    </g>
    <g id="Rectangle_1545" data-name="Rectangle 1545" transform="translate(1696.5 1537.509) rotate(90)" fill="#fff" stroke="#707070" stroke-width="1">
      <rect width="3.491" height="22" rx="1.746" stroke="none"/>
      <rect x="0.5" y="0.5" width="2.491" height="21" rx="1.246" fill="none"/>
    </g>
    <g id="Polygon_67" data-name="Polygon 67" transform="translate(1671 1521)" fill="#fff">
      <path d="M 25.11743927001953 7.500004291534424 L 3.882560014724731 7.500004291534424 C 3.522969961166382 7.500004291534424 3.421040058135986 7.212754249572754 3.398370027542114 7.124714374542236 C 3.37568998336792 7.036684513092041 3.326179981231689 6.735924243927002 3.641030073165894 6.562214374542236 L 14.25846004486084 0.7043144106864929 C 14.33222961425781 0.6636144518852234 14.41574954986572 0.64210444688797 14.5 0.64210444688797 C 14.58425045013428 0.64210444688797 14.66777038574219 0.6636144518852234 14.74153995513916 0.7043144106864929 L 25.35897064208984 6.562214374542236 C 25.67383003234863 6.735924243927002 25.62430953979492 7.036674499511719 25.60164070129395 7.124714374542236 C 25.57896041870117 7.212754249572754 25.47702980041504 7.500004291534424 25.11743927001953 7.500004291534424 Z" stroke="none"/>
      <path d="M 14.5 1.142094612121582 L 14.5 1.142104625701904 L 3.882574081420898 6.999997138977051 C 3.882574081420898 6.999999046325684 3.882575988769531 7.000001907348633 3.882560729980469 7.000004291534424 L 25.11741638183594 7.000004291534424 C 25.11741638183594 7.000002861022949 25.11741828918457 7 25.11742973327637 7.000004291534424 L 14.50008964538574 1.142094612121582 C 14.50008010864258 1.142094612121582 14.50004959106445 1.142094612121582 14.5 1.142094612121582 M 14.5 0.1420993804931641 C 14.66636753082275 0.1420993804931641 14.83273506164551 0.1835741996765137 14.98307991027832 0.2665243148803711 L 25.60050964355469 6.124424457550049 C 26.5053596496582 6.623654365539551 26.15086936950684 8.000004768371582 25.11742973327637 8.000004768371582 L 3.882560729980469 8.000004768371582 C 2.849130630493164 8.000004768371582 2.494630813598633 6.623654365539551 3.399480819702148 6.124424457550049 L 14.01692008972168 0.2665243148803711 C 14.16726493835449 0.1835741996765137 14.33363246917725 0.1420993804931641 14.5 0.1420993804931641 Z" stroke="none" fill="#707070"/>
    </g>
    <g id="Ellipse_398" data-name="Ellipse 398" transform="translate(1684 1524)" fill="#fff" stroke="#707070" stroke-width="0.5">
      <circle cx="1.5" cy="1.5" r="1.5" stroke="none"/>
      <circle cx="1.5" cy="1.5" r="1.25" fill="none"/>
    </g>
  </g>
</svg>
