<svg xmlns="http://www.w3.org/2000/svg" xmlns:xlink="http://www.w3.org/1999/xlink" width="301.306" height="183.711"><defs><linearGradient id="p" x1="-16.287" y1="-10.411" x2="-16.117" y2="-9.644" xlink:href="#d"/><linearGradient id="ac" x1="-.505" y1="-.362" x2="-.898" y2="-.187" xlink:href="#a"/><linearGradient id="b" x1="1" y1=".5" x2="0" y2=".5" xlink:href="#a"/><linearGradient id="c" x1=".291" y1=".068" x2=".677" y2=".936" xlink:href="#a"/><linearGradient id="d" x1=".367" y1=".952" x2=".744" y2="-.324" gradientUnits="objectBoundingBox"><stop offset="0" stop-color="#fbfbfb"/><stop offset="1" stop-color="#e5e5e5"/></linearGradient><linearGradient id="e" x1=".479" y1="-5.43" x2=".514" y2="-5.272" xlink:href="#a"/><linearGradient id="f" x1=".329" y1="-.072" x2=".699" y2=".83" xlink:href="#d"/><linearGradient id="g" x1=".468" y1="-6.657" x2=".512" y2="-6.452" xlink:href="#a"/><linearGradient id="h" x1=".314" y1="-1.25" x2=".553" y2="-.522" gradientUnits="objectBoundingBox"><stop offset="0" stop-color="#adadad"/><stop offset="1" stop-color="#e5e5e5"/></linearGradient><linearGradient id="j" x1="1" y1=".5" x2="0" y2=".5" gradientUnits="objectBoundingBox"><stop offset="0" stop-color="#3abaf9"/><stop offset="1" stop-color="#267ebd"/></linearGradient><linearGradient id="m" x1=".707" y1=".638" x2="-.027" y2=".32" xlink:href="#d"/><linearGradient id="n" x1=".245" y1=".082" x2=".533" y2=".838" xlink:href="#d"/><linearGradient id="o" x1=".233" y1=".092" x2=".516" y2=".832" xlink:href="#j"/><linearGradient id="a" x1=".233" y1=".753" x2=".758" y2=".198" gradientUnits="objectBoundingBox"><stop offset="0" stop-color="#fe7f0a"/><stop offset="1" stop-color="#ffb538"/></linearGradient><linearGradient id="q" x1="-13.661" y1="-8.699" x2="-13.494" y2="-7.937" xlink:href="#d"/><linearGradient id="r" x1="-13.733" y1="-8.659" x2="-13.566" y2="-7.897" xlink:href="#d"/><linearGradient id="s" x1="-13.805" y1="-8.62" x2="-13.638" y2="-7.857" xlink:href="#d"/><linearGradient id="t" x1="-18.013" y1="-10.783" x2="-17.841" y2="-10.014" xlink:href="#d"/><linearGradient id="u" x1="-16.803" y1="-10.075" x2="-16.633" y2="-9.308" xlink:href="#d"/><linearGradient id="v" x1="-14.094" y1="-8.413" x2="-13.927" y2="-7.651" xlink:href="#d"/><linearGradient id="w" x1="-14.166" y1="-8.374" x2="-13.999" y2="-7.611" xlink:href="#d"/><linearGradient id="x" x1=".947" y1=".736" x2=".214" y2=".418" xlink:href="#d"/><linearGradient id="y" x1=".489" y1=".181" x2=".777" y2=".937" xlink:href="#d"/><linearGradient id="z" x1=".506" y1=".202" x2=".789" y2=".942" xlink:href="#j"/><linearGradient id="aa" x1=".383" y1=".737" x2=".838" y2=".559" xlink:href="#a"/><linearGradient id="ab" x1=".377" y1=".64" x2=".91" y2=".467" xlink:href="#a"/><style>.a{opacity:.17}.b{fill:#4c0000;opacity:0}.c{fill:#4a0101;opacity:.038}.d{fill:#480202;opacity:.077}.e{fill:#460303;opacity:.115}.f{fill:#440404;opacity:.154}.g{fill:#420505;opacity:.192}.h{fill:#400606;opacity:.231}.i{fill:#3e0606;opacity:.269}.j{fill:#3c0707;opacity:.308}.k{fill:#3a0808;opacity:.346}.l{fill:#380909;opacity:.385}.m{fill:#360a0a;opacity:.423}.n{fill:#340b0b;opacity:.462}.o{fill:#330c0c;opacity:.5}.p{fill:#310d0d;opacity:.538}.q{fill:#2f0e0e;opacity:.577}.r{fill:#2d0f0f;opacity:.615}.s{fill:#2b1010;opacity:.654}.t{fill:#291111;opacity:.692}.u{fill:#271212;opacity:.731}.v{fill:#251212;opacity:.769}.w{fill:#231313;opacity:.808}.x{fill:#211414;opacity:.846}.y{fill:#1f1515;opacity:.885}.z{fill:#1d1616;opacity:.923}.aa{fill:#1b1717;opacity:.962}.ab{fill:#191818}.ad{fill:url(#b)}.af{fill:#fff}.al{fill:none;stroke:#ccc;stroke-linecap:round;stroke-linejoin:round}.am{fill:url(#j)}.an{fill:#d6d4d4}</style></defs><g class="a" transform="translate(213.954 107.463)"><ellipse class="c" cx="8.743" cy="42.342" rx="8.743" ry="42.342" transform="rotate(-91.98 10.433 9.886)"/><ellipse class="d" cx="8.526" cy="41.292" rx="8.526" ry="41.292" transform="rotate(-91.98 10.458 9.617)"/><ellipse class="e" cx="8.309" cy="40.242" rx="8.309" ry="40.242" transform="rotate(-91.98 10.484 9.347)"/><ellipse class="f" cx="8.093" cy="39.192" rx="8.093" ry="39.192" transform="rotate(-91.98 10.51 9.078)"/><ellipse class="g" cx="7.876" cy="38.141" rx="7.876" ry="38.141" transform="rotate(-91.98 10.535 8.81)"/><ellipse class="h" cx="7.659" cy="37.091" rx="7.659" ry="37.091" transform="rotate(-91.98 10.56 8.54)"/><ellipse class="i" cx="7.442" cy="36.041" rx="7.442" ry="36.041" transform="rotate(-91.98 10.585 8.271)"/><ellipse class="j" cx="7.225" cy="34.991" rx="7.225" ry="34.991" transform="rotate(-91.98 10.61 8.002)"/><ellipse class="k" cx="7.008" cy="33.941" rx="7.008" ry="33.941" transform="rotate(-91.98 10.636 7.733)"/><ellipse class="l" cx="6.792" cy="32.891" rx="6.792" ry="32.891" transform="rotate(-91.98 10.661 7.464)"/><ellipse class="m" cx="6.575" cy="31.84" rx="6.575" ry="31.84" transform="rotate(-91.98 10.687 7.195)"/><ellipse class="n" cx="6.358" cy="30.79" rx="6.358" ry="30.79" transform="rotate(-91.98 10.712 6.926)"/><ellipse class="o" cx="6.141" cy="29.74" rx="6.141" ry="29.74" transform="rotate(-91.98 10.738 6.657)"/><ellipse class="p" cx="5.924" cy="28.69" rx="5.924" ry="28.69" transform="rotate(-91.98 10.763 6.388)"/><ellipse class="q" cx="5.707" cy="27.64" rx="5.707" ry="27.64" transform="rotate(-91.98 10.788 6.119)"/><ellipse class="r" cx="5.49" cy="26.59" rx="5.49" ry="26.59" transform="rotate(-91.98 10.814 5.85)"/><ellipse class="s" cx="5.274" cy="25.539" rx="5.274" ry="25.539" transform="rotate(-91.98 10.84 5.58)"/><ellipse class="t" cx="5.057" cy="24.489" rx="5.057" ry="24.489" transform="rotate(-91.98 10.865 5.311)"/><ellipse class="u" cx="4.84" cy="23.439" rx="4.84" ry="23.439" transform="rotate(-91.98 10.89 5.042)"/><ellipse class="v" cx="4.623" cy="22.389" rx="4.623" ry="22.389" transform="rotate(-91.98 10.915 4.773)"/><ellipse class="w" cx="4.406" cy="21.339" rx="4.406" ry="21.339" transform="rotate(-91.98 10.94 4.504)"/><ellipse class="x" cx="4.189" cy="20.288" rx="4.189" ry="20.288" transform="rotate(-91.98 10.966 4.236)"/><ellipse class="y" cx="3.972" cy="19.238" rx="3.972" ry="19.238" transform="rotate(-91.98 10.992 3.967)"/><ellipse class="z" cx="3.756" cy="18.188" rx="3.756" ry="18.188" transform="rotate(-91.98 11.016 3.697)"/><ellipse class="aa" cx="3.539" cy="17.138" rx="3.539" ry="17.138" transform="rotate(-91.98 11.043 3.428)"/><ellipse class="ab" cx="3.322" cy="16.088" rx="3.322" ry="16.088" transform="rotate(-91.98 11.068 3.159)"/></g><g class="a" transform="translate(43.682 149.532)"><ellipse class="c" cx="8.743" cy="42.342" rx="8.743" ry="42.342" transform="rotate(-91.98 10.433 9.886)"/><ellipse class="d" cx="8.526" cy="41.292" rx="8.526" ry="41.292" transform="rotate(-91.98 10.458 9.617)"/><ellipse class="e" cx="8.309" cy="40.242" rx="8.309" ry="40.242" transform="rotate(-91.98 10.484 9.348)"/><ellipse class="f" cx="8.093" cy="39.192" rx="8.093" ry="39.192" transform="rotate(-91.98 10.51 9.078)"/><ellipse class="g" cx="7.876" cy="38.141" rx="7.876" ry="38.141" transform="rotate(-91.98 10.535 8.81)"/><ellipse class="h" cx="7.659" cy="37.091" rx="7.659" ry="37.091" transform="rotate(-91.98 10.56 8.54)"/><ellipse class="i" cx="7.442" cy="36.041" rx="7.442" ry="36.041" transform="rotate(-91.98 10.585 8.271)"/><ellipse class="j" cx="7.225" cy="34.991" rx="7.225" ry="34.991" transform="rotate(-91.98 10.61 8.002)"/><ellipse class="k" cx="7.008" cy="33.941" rx="7.008" ry="33.941" transform="rotate(-91.98 10.636 7.733)"/><ellipse class="l" cx="6.792" cy="32.891" rx="6.792" ry="32.891" transform="rotate(-91.98 10.661 7.464)"/><ellipse class="m" cx="6.575" cy="31.84" rx="6.575" ry="31.84" transform="rotate(-91.98 10.687 7.195)"/><ellipse class="n" cx="6.358" cy="30.79" rx="6.358" ry="30.79" transform="rotate(-91.98 10.712 6.926)"/><ellipse class="o" cx="6.141" cy="29.74" rx="6.141" ry="29.74" transform="rotate(-91.98 10.738 6.657)"/><ellipse class="p" cx="5.924" cy="28.69" rx="5.924" ry="28.69" transform="rotate(-91.98 10.763 6.388)"/><ellipse class="q" cx="5.707" cy="27.64" rx="5.707" ry="27.64" transform="rotate(-91.98 10.788 6.119)"/><ellipse class="r" cx="5.49" cy="26.59" rx="5.49" ry="26.59" transform="rotate(-91.98 10.814 5.85)"/><ellipse class="s" cx="5.274" cy="25.539" rx="5.274" ry="25.539" transform="rotate(-91.98 10.839 5.58)"/><ellipse class="t" cx="5.057" cy="24.489" rx="5.057" ry="24.489" transform="rotate(-91.98 10.865 5.311)"/><ellipse class="u" cx="4.84" cy="23.439" rx="4.84" ry="23.439" transform="rotate(-91.98 10.89 5.042)"/><ellipse class="v" cx="4.623" cy="22.389" rx="4.623" ry="22.389" transform="rotate(-91.98 10.915 4.773)"/><ellipse class="w" cx="4.406" cy="21.339" rx="4.406" ry="21.339" transform="rotate(-91.98 10.94 4.504)"/><ellipse class="x" cx="4.189" cy="20.288" rx="4.189" ry="20.288" transform="rotate(-91.98 10.966 4.235)"/><ellipse class="y" cx="3.972" cy="19.238" rx="3.972" ry="19.238" transform="rotate(-91.98 10.991 3.966)"/><ellipse class="z" cx="3.756" cy="18.188" rx="3.756" ry="18.188" transform="rotate(-91.98 11.016 3.697)"/><ellipse class="aa" cx="3.539" cy="17.138" rx="3.539" ry="17.138" transform="rotate(-91.98 11.042 3.428)"/><ellipse class="ab" cx="3.322" cy="16.088" rx="3.322" ry="16.088" transform="rotate(-91.98 11.068 3.159)"/></g><path d="m1459.264 436.671 38.519-23.9a1.391 1.391 0 0 1 .747-.222 1.519 1.519 0 0 1 .8.239l2.524 1.33-1.83 2.728v31.613a2.284 2.284 0 0 1-1.086 1.961l-11.861 7.361-24.851 15.419-2.834 4.226-2.367-1.246a.7.7 0 0 1-.312-.164.651.651 0 0 1-.2-.485v-33.9a5.8 5.8 0 0 1 2.751-4.96z" transform="translate(-1340.41 -412.546)" style="fill:url(#a)"/><path class="ad" d="m121.533 25.535 38.519-23.9a1.392 1.392 0 0 1 .747-.222 1.5 1.5 0 0 1 1.494 1.494v34.416a2.284 2.284 0 0 1-1.086 1.961l-11.861 7.361-6.217 3.858-1.913 23.595-10.439-15.928-10.979 6.815a.647.647 0 0 1-.333.1.707.707 0 0 1-.484-.2.65.65 0 0 1-.2-.484v-33.9a5.8 5.8 0 0 1 2.752-4.966z"/><path d="m1588.69 793.869 8.8 12.495 3.6 2.216-10.439-15.928z" transform="translate(-1459.872 -734.484)" style="fill:url(#c)"/><path class="af" d="m126.69 33.503 27.693-16.946a2.219 2.219 0 0 0 1.021-1.645c0-.562-.459-.74-1.021-.4L126.69 31.458a2.219 2.219 0 0 0-1.021 1.645c0 .565.459.744 1.021.4zM126.69 38.472l27.693-16.945a2.219 2.219 0 0 0 1.021-1.646c0-.561-.459-.74-1.021-.4L126.69 36.427a2.219 2.219 0 0 0-1.021 1.645c0 .567.459.745 1.021.4zM126.69 43.444l27.693-16.946a2.219 2.219 0 0 0 1.021-1.645c0-.561-.459-.74-1.021-.4L126.69 41.399a2.218 2.218 0 0 0-1.021 1.645c0 .565.459.744 1.021.4zM126.69 48.415l27.693-16.946a2.219 2.219 0 0 0 1.021-1.645c0-.561-.459-.74-1.021-.4L126.69 46.37a2.219 2.219 0 0 0-1.021 1.645c0 .565.459.743 1.021.4z"/><g><g class="a" transform="translate(77.94 90.608)"><ellipse class="c" cx="14.898" cy="34.123" rx="14.898" ry="34.123" transform="rotate(-95 18.244 16.439)"/><ellipse class="d" cx="14.528" cy="33.277" rx="14.528" ry="33.277" transform="rotate(-95 18.447 15.847)"/><ellipse class="e" cx="14.159" cy="32.431" rx="14.159" ry="32.431" transform="rotate(-95 18.65 15.254)"/><ellipse class="f" cx="13.789" cy="31.584" rx="13.789" ry="31.584" transform="rotate(-95 18.854 14.662)"/><ellipse class="g" cx="13.42" cy="30.738" rx="13.42" ry="30.738" transform="rotate(-95 19.057 14.07)"/><ellipse class="h" cx="13.05" cy="29.892" rx="13.05" ry="29.892" transform="rotate(-95 19.26 13.477)"/><ellipse class="i" cx="12.681" cy="29.045" rx="12.681" ry="29.045" transform="rotate(-95 19.464 12.884)"/><ellipse class="j" cx="12.311" cy="28.199" rx="12.311" ry="28.199" transform="rotate(-94.972 19.671 12.288)"/><ellipse class="k" cx="11.942" cy="27.353" rx="11.942" ry="27.353" transform="rotate(-94.972 19.875 11.694)"/><ellipse class="l" cx="11.572" cy="26.506" rx="11.572" ry="26.506" transform="rotate(-94.972 20.078 11.102)"/><ellipse class="m" cx="11.203" cy="25.66" rx="11.203" ry="25.66" transform="rotate(-94.972 20.281 10.51)"/><ellipse class="n" cx="10.833" cy="24.814" rx="10.833" ry="24.814" transform="rotate(-94.972 20.484 9.917)"/><ellipse class="o" cx="10.464" cy="23.967" rx="10.464" ry="23.967" transform="rotate(-94.972 20.688 9.325)"/><ellipse class="p" cx="10.094" cy="23.121" rx="10.094" ry="23.121" transform="rotate(-94.972 20.89 8.732)"/><ellipse class="q" cx="9.725" cy="22.275" rx="9.725" ry="22.275" transform="rotate(-94.972 21.094 8.14)"/><ellipse class="r" cx="9.355" cy="21.428" rx="9.355" ry="21.428" transform="rotate(-94.972 21.297 7.547)"/><ellipse class="s" cx="8.986" cy="20.582" rx="8.986" ry="20.582" transform="rotate(-94.972 21.5 6.954)"/><ellipse class="t" cx="8.616" cy="19.736" rx="8.616" ry="19.736" transform="rotate(-94.972 21.704 6.362)"/><ellipse class="u" cx="8.247" cy="18.889" rx="8.247" ry="18.889" transform="rotate(-94.972 21.907 5.77)"/><ellipse class="v" cx="7.877" cy="18.043" rx="7.877" ry="18.043" transform="rotate(-94.972 22.11 5.177)"/><ellipse class="w" cx="7.508" cy="17.197" rx="7.508" ry="17.197" transform="rotate(-94.972 22.313 4.584)"/><ellipse class="x" cx="7.138" cy="16.35" rx="7.138" ry="16.35" transform="rotate(-94.972 22.516 3.992)"/><ellipse class="y" cx="6.769" cy="15.504" rx="6.769" ry="15.504" transform="rotate(-94.972 22.72 3.4)"/><ellipse class="z" cx="6.399" cy="14.658" rx="6.399" ry="14.658" transform="rotate(-94.972 22.922 2.807)"/><ellipse class="aa" cx="6.03" cy="13.811" rx="6.03" ry="13.811" transform="rotate(-94.972 23.126 2.214)"/><ellipse class="ab" cx="5.66" cy="12.965" rx="5.66" ry="12.965" transform="rotate(-94.972 23.33 1.622)"/></g><g class="a" transform="translate(158.958 154.267)"><ellipse class="c" cx="12.271" cy="47.519" rx="12.271" ry="47.519" transform="rotate(-92.541 14.633 13.854)"/><ellipse class="d" cx="11.967" cy="46.341" rx="11.967" ry="46.341" transform="rotate(-92.541 14.626 13.52)"/><ellipse class="e" cx="11.662" cy="45.162" rx="11.662" ry="45.162" transform="rotate(-92.541 14.618 13.186)"/><ellipse class="f" cx="11.358" cy="43.983" rx="11.358" ry="43.983" transform="rotate(-92.541 14.61 12.852)"/><ellipse class="g" cx="11.054" cy="42.805" rx="11.054" ry="42.805" transform="rotate(-92.541 14.603 12.518)"/><ellipse class="h" cx="10.749" cy="41.626" rx="10.749" ry="41.626" transform="rotate(-92.541 14.596 12.184)"/><ellipse class="i" cx="10.445" cy="40.448" rx="10.445" ry="40.448" transform="rotate(-92.541 14.589 11.85)"/><ellipse class="j" cx="10.141" cy="39.269" rx="10.141" ry="39.269" transform="rotate(-92.541 14.581 11.516)"/><ellipse class="k" cx="9.836" cy="38.091" rx="9.836" ry="38.091" transform="rotate(-92.541 14.574 11.182)"/><ellipse class="l" cx="9.532" cy="36.912" rx="9.532" ry="36.912" transform="rotate(-92.541 14.566 10.848)"/><ellipse class="m" cx="9.227" cy="35.733" rx="9.227" ry="35.733" transform="rotate(-92.541 14.559 10.513)"/><ellipse class="n" cx="8.923" cy="34.555" rx="8.923" ry="34.555" transform="rotate(-92.541 14.551 10.18)"/><ellipse class="o" cx="8.619" cy="33.376" rx="8.619" ry="33.376" transform="rotate(-92.541 14.544 9.846)"/><ellipse class="p" cx="8.314" cy="32.198" rx="8.314" ry="32.198" transform="rotate(-92.541 14.536 9.511)"/><ellipse class="q" cx="8.01" cy="31.019" rx="8.01" ry="31.019" transform="rotate(-92.541 14.53 9.177)"/><ellipse class="r" cx="7.706" cy="29.84" rx="7.706" ry="29.84" transform="rotate(-92.541 14.522 8.843)"/><ellipse class="s" cx="7.401" cy="28.662" rx="7.401" ry="28.662" transform="rotate(-92.541 14.515 8.51)"/><ellipse class="t" cx="7.097" cy="27.483" rx="7.097" ry="27.483" transform="rotate(-92.541 14.507 8.175)"/><ellipse class="u" cx="6.793" cy="26.305" rx="6.793" ry="26.305" transform="rotate(-92.541 14.5 7.841)"/><ellipse class="v" cx="6.488" cy="25.126" rx="6.488" ry="25.126" transform="rotate(-92.541 14.492 7.507)"/><ellipse class="w" cx="6.184" cy="23.948" rx="6.184" ry="23.948" transform="rotate(-92.541 14.485 7.173)"/><ellipse class="x" cx="5.88" cy="22.769" rx="5.88" ry="22.769" transform="rotate(-92.541 14.477 6.84)"/><ellipse class="y" cx="5.575" cy="21.59" rx="5.575" ry="21.59" transform="rotate(-92.541 14.47 6.505)"/><ellipse class="z" cx="5.271" cy="20.412" rx="5.271" ry="20.412" transform="rotate(-92.541 14.462 6.17)"/><ellipse class="aa" cx="4.967" cy="19.233" rx="4.967" ry="19.233" transform="rotate(-92.541 14.454 5.837)"/><ellipse class="ab" cx="4.662" cy="18.055" rx="4.662" ry="18.055" transform="rotate(-92.541 14.447 5.503)"/></g><path d="M772.453 1377.981c11.79-4.237 20.172 20.574 30.415 42.223s41.32 32.81 41.32 32.81l62.774-34.575s-31.077-11.161-41.32-32.81-18.626-46.46-30.415-42.223l-3.642 2.006-41.178 22.68z" transform="translate(-660.836 -1277.289)" style="fill:url(#d)"/><path d="M1244.862 1346.044a13.664 13.664 0 0 0-3.642 2.006z" transform="translate(-1070.471 -1279.928)" style="fill:url(#e)"/><path d="M1534.1 949.339a15.983 15.983 0 0 1 2.716-.659c4.425-.7 8.708 2.053 12.838 7.011 9.481 11.357 18.168 34.285 25.96 53.472 11.169 27.524 17.069 33.925 33.213 32.332s18.615-22.559 30.415-26.807l17.954-9.889c-6.785-3.825-11.739-12.785-18.809-30.212-11.179-27.534-24.21-62.791-38.8-60.483a16.633 16.633 0 0 0-1.709.354l-4.985 2.721z" transform="translate(-1527.624 -913.998)" style="fill:url(#f)"/><path d="m1921.7 919.736 4.984-2.721a10.455 10.455 0 0 0-4.984 2.721z" transform="translate(-1856.432 -916.553)" style="fill:url(#g)"/><path d="m2238.6 1158.225 20.284-11.171c-4.13-4.958-8.412-7.709-12.837-7.011a15.986 15.986 0 0 0-2.716.658c-10.917 3.759-4.731 17.524-4.731 17.524z" transform="translate(-2236.854 -1105.36)" style="fill:url(#h)"/><path class="al" d="m56.077 33.071-23.996 13.11M58.285 37.571l-23.996 13.11M60.494 42.07 36.498 55.18M62.702 46.57 38.706 59.68M64.911 51.069l-23.996 13.11M108.566 80.185 71.07 100.627M110.411 83.944l-37.496 20.442M112.256 87.704 74.76 108.146M114.102 91.463l-37.496 20.442M115.947 95.223l-37.496 20.442M191.473 105.587l-37.496 20.442M193.318 109.346l-37.496 20.442M195.163 113.106l-37.496 20.442M197.009 116.865l-37.496 20.442M198.854 120.625l-37.496 20.442M68.119 12.533 33.12 31.274"/><path class="af" d="m87.925 17.914-25.224 13.36 7.555 17.65 25.769-13.318z"/><path class="ad" d="M70.21 64.746 44.56 78.283l8.548 17.831 25.769-13.318z"/><path class="am" d="m100.154 49.059-25.65 13.538 8.548 17.83 25.769-13.318z"/><path class="an" d="m154.877 92.249-25.65 13.538 8.548 17.83 25.769-13.318zM184.821 76.565l-25.65 13.538 8.549 17.831 25.769-13.318zM183.864 137.42l-22.092 11.5 13.234 15.145 22.269-11.312zM209.686 124.098l-22.093 11.5 13.234 15.145 22.269-11.312z"/><path class="am" d="m93.19 34.629-6.281-13.721-21.427 11.349 5.85 13.668z"/><path class="ad" d="M93.191 34.628 83.8 30.865l-2.578 6.025-8.982-5.617-.906 14.651z"/><circle class="af" cx="1.858" cy="1.858" transform="translate(81.165 24.638)" r="1.858"/></g><g><path d="M1456.875 1777.379c.166-.315-.063-2.889 1.989-3.072l40.7-17.917a3.094 3.094 0 0 1 3.97 1.232l24.588 36.964c.3.511-.721 3.129-.821 3.715a2.4 2.4 0 0 1-1.167 1.687l-40.327 23.739a2.155 2.155 0 0 1-2.967-.814l-25.958-43.979a1.6 1.6 0 0 1-.007-1.555z" transform="translate(-1254.761 -1703.233)" style="fill:url(#m)"/><path d="M1456.881 1758.835a1.644 1.644 0 0 1 .772-.7l41.919-20.285a3.094 3.094 0 0 1 3.97 1.232l23.418 38.981a2.527 2.527 0 0 1 .349 1.7 2.394 2.394 0 0 1-1.167 1.686l-40.327 23.739a2.155 2.155 0 0 1-2.967-.814l-25.957-43.98a1.6 1.6 0 0 1-.01-1.559z" transform="translate(-1253.922 -1687.526)" style="fill:url(#n)"/><path d="m1543.356 1797.539-22.923-38.158-40.142 19.424 24.468 41.454z" transform="translate(-1273.549 -1706.012)" style="fill:url(#o)"/><path d="m1683.923 1846.449 20.337-10.712a.7.7 0 0 0 .286-.974l-.07-.118a.784.784 0 0 0-1.029-.281l-20.336 10.712a.7.7 0 0 0-.286.974l.07.118a.785.785 0 0 0 1.028.281z" transform="translate(-1465.815 -1769.445)" style="fill:url(#p)"/><path d="m1644.051 1854.882 24.466-12.882a.76.76 0 0 0 .313-1.065.858.858 0 0 0-1.126-.307l-24.466 12.887a.76.76 0 0 0-.312 1.065.858.858 0 0 0 1.125.302z" transform="translate(-1424.002 -1774.739)" style="fill:url(#q)"/><path d="m1631.766 1875.612 24.466-12.887a.76.76 0 0 0 .312-1.065.858.858 0 0 0-1.126-.307l-24.466 12.887a.76.76 0 0 0-.313 1.065.858.858 0 0 0 1.127.307z" transform="translate(-1409.837 -1792.297)" style="fill:url(#r)"/><path d="m1619.482 1896.343 24.466-12.887a.76.76 0 0 0 .313-1.065.858.858 0 0 0-1.126-.308l-24.466 12.887a.76.76 0 0 0-.313 1.065.858.858 0 0 0 1.126.308z" transform="translate(-1395.673 -1809.854)" style="fill:url(#s)"/><path d="m1606.906 1913.792 18.688-9.843a.667.667 0 0 0 .274-.935l-.1-.168a.753.753 0 0 0-.988-.27l-18.688 9.843a.667.667 0 0 0-.274.935l.1.168a.753.753 0 0 0 .988.27z" transform="translate(-1375.351 -1827.221)" style="fill:url(#t)"/><g><path d="m1601.084 1968.656 20.336-10.712a.7.7 0 0 0 .286-.973l-.07-.118a.784.784 0 0 0-1.029-.281l-20.337 10.712a.7.7 0 0 0-.286.973l.07.118a.784.784 0 0 0 1.03.281z" transform="translate(-1370.298 -1872.951)" style="fill:url(#u)"/><path d="m1561.212 1977.089 24.466-12.887a.76.76 0 0 0 .312-1.065.858.858 0 0 0-1.125-.307l-24.466 12.887a.76.76 0 0 0-.312 1.065.858.858 0 0 0 1.125.307z" transform="translate(-1328.485 -1878.244)" style="fill:url(#v)"/><path d="m1548.927 1997.819 24.466-12.887a.76.76 0 0 0 .313-1.065.859.859 0 0 0-1.126-.307l-24.466 12.887a.76.76 0 0 0-.313 1.065.858.858 0 0 0 1.126.307z" transform="translate(-1314.321 -1895.802)" style="fill:url(#w)"/></g></g><g transform="translate(45.996 105.561)"><path d="M1253.143 977.761c.141-.267-.054-2.448 1.686-2.6l34.494-15.185a2.621 2.621 0 0 1 3.365 1.044l20.838 31.327c.257.433-.611 2.652-.7 3.148a2.029 2.029 0 0 1-.989 1.429l-34.176 20.118a1.826 1.826 0 0 1-2.515-.69l-22-37.272a1.359 1.359 0 0 1-.003-1.319z" transform="translate(-1252.977 -957.323)" style="fill:url(#x)"/><path d="M1253.147 962.045a1.391 1.391 0 0 1 .654-.6l35.525-17.191a2.622 2.622 0 0 1 3.365 1.044l19.846 33.036a2.142 2.142 0 0 1 .3 1.44 2.03 2.03 0 0 1-.989 1.429l-34.176 20.118a1.827 1.827 0 0 1-2.515-.69l-22-37.272a1.358 1.358 0 0 1-.01-1.314z" transform="translate(-1252.265 -944.012)" style="fill:url(#y)"/><path d="m1326.434 994.847-19.427-32.339-34.02 16.462 20.736 35.132z" transform="translate(-1268.9 -959.678)" style="fill:url(#z)"/><path d="m1294.976 1106.465-21.989-12.171.043 25.09z" transform="translate(-1237.442 -1071.296)" style="fill:url(#aa)"/><path d="m1374.076 1112.737-25.342-19.094 4.223 31.526z" transform="translate(-1328.133 -1070.745)" style="fill:url(#ab)"/><circle cx="4.109" cy="4.109" transform="rotate(-101.657 24.052 -3.13)" style="fill:url(#ac)" r="4.109"/></g></svg>