<svg xmlns="http://www.w3.org/2000/svg" xmlns:xlink="http://www.w3.org/1999/xlink" width="1920" height="230" viewBox="0 0 1920 230">
  <defs>
    <clipPath id="clip-path">
      <rect id="Rectangle_1326" data-name="Rectangle 1326" width="1920" height="230" transform="translate(0 247.59)" fill="#f3f3f3" stroke="#fff" stroke-width="1"/>
    </clipPath>
    <linearGradient id="linear-gradient" x1="0.487" y1="0.517" x2="0.5" y2="0.902" gradientUnits="objectBoundingBox">
      <stop offset="0" stop-color="#4c61f6"/>
      <stop offset="1" stop-color="#3246d3"/>
    </linearGradient>
  </defs>
  <g id="Mask_Group_118" data-name="Mask Group 118" transform="translate(0 -247.59)" clip-path="url(#clip-path)">
    <path id="Path_1267" data-name="Path 1267" d="M0,0H1969.409V349.01H0Z" transform="translate(-13.002 204.031)" fill="#3246d3"/>
    <path id="Path_1268" data-name="Path 1268" d="M-22216.428-6817.286l60.459,18.553,42.48-43.854h40.854l39.215,37.107,37.58-77.588,45.752,15.181,39.217,35.421,40.848-43.855,124.184,50.6,83.334-25.3h42.482l73.529-62.408,37.58,62.408,42.482-40.48,71.9,40.48s31.045-40.48,47.385-40.48,96.4,40.48,96.4,40.48l29.412-32.048,39.217,23.614,32.678-32.046,88.238,32.046,80.064-87.708,34.313,33.734h39.213l75.164-79.276,13.072-15.18,37.584-13.494,76.795-107.948,81.7,48.915,49.018-28.676,29.414-48.914,40.846,48.914,49.021-48.914,37.582,20.24,34.314-102.889h44.115l55.555-75.9v657.813h-1933Z" transform="translate(22203.426 7272.897)" stroke="#5267f5" stroke-linecap="round" stroke-width="5" opacity="0.57" fill="url(#linear-gradient)"/>
    <path id="Path_1269" data-name="Path 1269" d="M-22449.916-8332.167c3.361,6.851,72.275,66.8,72.275,66.8l67.238-66.8s28.574-1.714,35.3,0,67.234,32.544,67.234,32.544,36.979-58.238,53.789-58.238,112.619,13.7,112.619,13.7,45.379-37.686,53.785-37.686,100.854,18.841,105.9,23.981,115.98,25.694,115.98,25.694l20.168-49.676s72.279,41.11,77.322,37.686,47.066-39.4,52.107-37.686,62.191,0,62.191,0l43.7,46.248,72.277-46.248,110.939,95.924h114.3l90.768,35.971,65.555-23.981,65.553,54.813,48.746-30.832,25.213,53.1,121.023,23.982,42.021-32.545,35.3,32.545,47.068-23.982,50.426-101.061,30.256,23.98,73.955-123.329" transform="translate(22441.916 8656.857)" fill="none" stroke="#6174f5" stroke-linecap="round" stroke-width="6" stroke-dasharray="7 12" opacity="0.42"/>
  </g>
</svg>
