<svg xmlns="http://www.w3.org/2000/svg" xmlns:xlink="http://www.w3.org/1999/xlink" width="1754" height="375" viewBox="0 0 1754 375">
  <defs>
    <clipPath id="clip-path">
      <rect id="Rectangle_1326" data-name="Rectangle 1326" width="1754" height="375" rx="46" transform="translate(83 248)" fill="#f3f3f3" stroke="#fff" stroke-width="1"/>
    </clipPath>
    <linearGradient id="linear-gradient" x1="0.487" y1="0.517" x2="0.5" y2="0.902" gradientUnits="objectBoundingBox">
      <stop offset="0" stop-color="#4c61f6"/>
      <stop offset="1" stop-color="#3246d3"/>
    </linearGradient>
  </defs>
  <g id="Mask_Group_118" data-name="Mask Group 118" transform="translate(-83 -248)" clip-path="url(#clip-path)">
    <path id="Path_1267" data-name="Path 1267" d="M0,0H1825.652V433.3H0Z" transform="translate(47.174 218.848)" fill="#3246d3"/>
    <path id="Path_1268" data-name="Path 1268" d="M-22216.426-6871.989l54.859,16.521,38.547-39.049h37.07l35.584,33.041,34.1-69.087,41.516,13.518,35.586,31.54,37.064-39.05,112.684,45.058,75.617-22.529h38.549l66.721-55.569,34.1,55.569,38.549-36.045,65.24,36.045s28.17-36.045,43-36.045,87.477,36.045,87.477,36.045l26.688-28.536,35.586,21.026,29.652-28.535,80.066,28.535,72.65-78.1,31.135,30.038h35.582l68.205-70.59,11.861-13.517,34.1-12.016,69.684-96.12,74.135,43.555,44.479-25.533,26.691-43.555,37.063,43.555,44.482-43.555,34.1,18.022,31.137-91.615h40.031l50.41-67.585v585.738h-1754Z" transform="translate(22299.426 7436.398)" stroke="#5267f5" stroke-linecap="round" stroke-width="5" opacity="0.57" fill="url(#linear-gradient)"/>
    <path id="Path_1269" data-name="Path 1269" d="M-22449.918-8339.45c3.043,6.084,65.412,59.328,65.412,59.328l60.852-59.328s25.861-1.521,31.945,0,60.85,28.9,60.85,28.9,33.467-51.722,48.68-51.722,101.924,12.17,101.924,12.17,41.07-33.468,48.678-33.468,91.275,16.733,95.84,21.3,104.965,22.819,104.965,22.819l18.254-44.117s65.414,36.51,69.979,33.468,42.6-34.988,47.158-33.468,56.285,0,56.285,0l39.553,41.073,65.414-41.073,100.4,85.19h103.443l82.146,31.946,59.33-21.3,59.326,48.681,44.117-27.382,22.818,47.157,109.529,21.3,38.031-28.9,31.945,28.9,42.6-21.3,45.637-89.753,27.383,21.3,66.932-109.529" transform="translate(22537.492 8686.814)" fill="none" stroke="#6174f5" stroke-linecap="round" stroke-width="6" stroke-dasharray="7 12" opacity="0.42"/>
  </g>
</svg>
