<svg xmlns="http://www.w3.org/2000/svg" width="33.159" height="29.208" viewBox="0 0 33.159 29.208"><defs><style>.a{fill:#098b41;}</style></defs><g transform="translate(-152.797 -982.575)"><path class="a" d="M187.3,993.436a28.128,28.128,0,0,0-2.558,1.86A9.739,9.739,0,1,1,174,1007.779c-.691.914-1.277,1.7-1.7,2.293a12.161,12.161,0,1,0,15-16.636Z" transform="translate(-9.521 -5.303)"/><g transform="translate(170.334 992.848)"><path class="a" d="M193.777,1006.9h-2.811v-.466a3.036,3.036,0,0,0-.1-.973.4.4,0,0,0-.418-.23.43.43,0,0,0-.386.2,1.1,1.1,0,0,0-.129.595,1.29,1.29,0,0,0,.265.925,10.286,10.286,0,0,0,1.516,1.03,11.221,11.221,0,0,1,1.461.992,2.664,2.664,0,0,1,.658.974,4.019,4.019,0,0,1,.268,1.569,3.539,3.539,0,0,1-.724,2.358,3.316,3.316,0,0,1-2.171,1.057v1.057h-1.294v-1.092a3.376,3.376,0,0,1-1.969-.866,3.418,3.418,0,0,1-.842-2.633v-.55h2.811v.688a6.508,6.508,0,0,0,.087,1.409.391.391,0,0,0,.421.275.49.49,0,0,0,.424-.191.96.96,0,0,0,.139-.567,4.865,4.865,0,0,0-.132-1.353,2,2,0,0,0-.9-.887,19.6,19.6,0,0,1-1.75-1.186,3.139,3.139,0,0,1-.8-1.068,3.5,3.5,0,0,1-.337-1.559,2.678,2.678,0,0,1,.713-1.976,3.5,3.5,0,0,1,2.139-.883v-.9h1.294v.9a3.075,3.075,0,0,1,1.948.873,2.779,2.779,0,0,1,.647,1.952Q193.8,1006.543,193.777,1006.9Z" transform="translate(-187.063 -1002.647)"/></g><g transform="translate(152.797 982.575)"><path class="a" d="M161.86,1002.19a1.367,1.367,0,0,1-1.153-.632,41.875,41.875,0,0,0-7.487-9.316,1.368,1.368,0,1,1,1.889-1.98,41.775,41.775,0,0,1,6.746,8.033c5.082-7.628,11.092-12.878,17.885-15.619a1.368,1.368,0,0,1,1.024,2.538c-6.765,2.73-12.734,8.224-17.74,16.328a1.368,1.368,0,0,1-1.154.649Z" transform="translate(-152.797 -982.575)"/></g></g></svg>