<svg xmlns="http://www.w3.org/2000/svg" width="14.174" height="12.486" viewBox="0 0 14.174 12.486">
  <g id="Group_956" data-name="Group 956" transform="translate(-152.797 -982.575)">
    <path id="Path_458" data-name="Path 458" d="M178.712,993.436a12.012,12.012,0,0,0-1.094.8,4.163,4.163,0,1,1-4.593,5.336c-.3.391-.546.728-.727.98a5.2,5.2,0,1,0,6.413-7.111Z" transform="translate(-15.235 -8.485)" fill="#004cff"/>
    <g id="Group_952" data-name="Group 952" transform="translate(160.294 986.966)">
      <path id="Path_459" data-name="Path 459" d="M189.933,1004.464h-1.2v-.2a1.3,1.3,0,0,0-.042-.416.173.173,0,0,0-.179-.1.184.184,0,0,0-.165.085.472.472,0,0,0-.055.254.551.551,0,0,0,.113.4,4.4,4.4,0,0,0,.648.44,4.787,4.787,0,0,1,.625.424,1.137,1.137,0,0,1,.281.416,1.718,1.718,0,0,1,.114.671,1.513,1.513,0,0,1-.309,1.008,1.418,1.418,0,0,1-.928.452v.452h-.553v-.467a1.444,1.444,0,0,1-.842-.37,1.461,1.461,0,0,1-.36-1.125v-.235h1.2v.294a2.785,2.785,0,0,0,.037.6.167.167,0,0,0,.18.117.209.209,0,0,0,.181-.082.41.41,0,0,0,.059-.242,2.079,2.079,0,0,0-.056-.578.855.855,0,0,0-.387-.379,8.363,8.363,0,0,1-.748-.507,1.342,1.342,0,0,1-.342-.456,1.5,1.5,0,0,1-.144-.667,1.145,1.145,0,0,1,.3-.845,1.5,1.5,0,0,1,.914-.378v-.384h.553v.384a1.315,1.315,0,0,1,.833.373,1.188,1.188,0,0,1,.277.834C189.945,1004.288,189.941,1004.363,189.933,1004.464Z" transform="translate(-187.063 -1002.647)" fill="#004cff"/>
    </g>
    <g id="Group_953" data-name="Group 953" transform="translate(152.797 982.575)">
      <path id="Path_460" data-name="Path 460" d="M156.671,990.959a.584.584,0,0,1-.493-.27,17.9,17.9,0,0,0-3.2-3.982.585.585,0,1,1,.807-.846,17.857,17.857,0,0,1,2.884,3.434,17.04,17.04,0,0,1,7.645-6.677.585.585,0,1,1,.438,1.085c-2.892,1.167-5.443,3.515-7.583,6.979a.585.585,0,0,1-.493.277Z" transform="translate(-152.797 -982.575)" fill="#004cff"/>
    </g>
  </g>
</svg>
