<svg id="Group_824" data-name="Group 824" xmlns="http://www.w3.org/2000/svg" xmlns:xlink="http://www.w3.org/1999/xlink" width="15.368" height="16.393" viewBox="0 0 15.368 16.393">
  <defs>
    <clipPath id="clip-path">
      <rect id="Rectangle_1630" data-name="Rectangle 1630" width="15.368" height="16.393" fill="none"/>
    </clipPath>
  </defs>
  <g id="Group_823" data-name="Group 823" clip-path="url(#clip-path)">
    <path id="Path_6161" data-name="Path 6161" d="M2.957,9H14.589a1.222,1.222,0,0,0,1.222-1.222V5.867a1.222,1.222,0,0,0-1.222-1.222H2.957A1.222,1.222,0,0,0,1.735,5.867V7.778A1.222,1.222,0,0,0,2.957,9" transform="translate(-0.906 -2.427)" fill="#29a9ff"/>
    <path id="Path_6162" data-name="Path 6162" d="M12.1,1.306h-.8V.716a.716.716,0,1,0-1.433,0v.589H5.732V.716A.716.716,0,1,0,4.3.716v.589H3.273A3.277,3.277,0,0,0,0,4.579V13.12a3.277,3.277,0,0,0,3.273,3.274H12.1a3.277,3.277,0,0,0,3.273-3.274V4.579A3.277,3.277,0,0,0,12.1,1.306M3.273,2.739H4.3v.689a.716.716,0,1,0,1.433,0V2.739h4.13v.689a.716.716,0,1,0,1.433,0V2.739h.8a1.842,1.842,0,0,1,1.84,1.84V5.914H1.433V4.579a1.842,1.842,0,0,1,1.84-1.84M12.1,14.961H3.273a1.843,1.843,0,0,1-1.84-1.841V7.347h12.5V13.12a1.843,1.843,0,0,1-1.84,1.841" transform="translate(0 0)" fill="#fff"/>
  </g>
</svg>
