<svg xmlns="http://www.w3.org/2000/svg" width="40.522" height="36.158" viewBox="0 0 40.522 36.158">
  <g id="Group_894" data-name="Group 894" transform="translate(-346.975 -450.162)">
    <path id="Path_401" data-name="Path 401" d="M385.587,477.276a14.618,14.618,0,0,0,1.75-9.417,14.827,14.827,0,0,0-12.1-12.417c-.191-.207-.363-.425-.566-.624A16.28,16.28,0,0,0,349.118,474.5l-1.893,6.185a2.877,2.877,0,0,0,3.526,3.611l7.952-2.214a15.983,15.983,0,0,0,6.315.544,14.432,14.432,0,0,0,4.669,1.893,14.621,14.621,0,0,0,7.108-.275l7.1,1.976a2.8,2.8,0,0,0,.736.1,2.753,2.753,0,0,0,2.634-3.558Zm-26.344,1.5-.476-.158-8.133,2.268,2.1-6.856-.41-.645a12.956,12.956,0,0,1,8.75-19.726,13.343,13.343,0,0,1,2.2-.181,12.974,12.974,0,0,1,12.834,14.9,13.085,13.085,0,0,1-10.186,10.775A12.914,12.914,0,0,1,359.243,478.777Zm23.144-2.611-.41.645,1.813,5.935-7.055-1.964-.478.154a11.379,11.379,0,0,1-5.9.332c-.065-.013-.126-.038-.189-.055A16.254,16.254,0,0,0,378.2,459.98a11.421,11.421,0,0,1,4.185,16.186Z" transform="translate(0 0)" fill="#098b41"/>
    <path id="Path_402" data-name="Path 402" d="M361.645,463.289a2.391,2.391,0,1,0-2.392-2.392A2.392,2.392,0,0,0,361.645,463.289Z" transform="translate(8.088 5.497)" fill="#098b41"/>
    <path id="Path_403" data-name="Path 403" d="M357.807,458.507a2.391,2.391,0,1,0,2.39,2.39A2.39,2.39,0,0,0,357.807,458.507Z" transform="translate(5.56 5.497)" fill="#098b41"/>
    <path id="Path_404" data-name="Path 404" d="M353.967,458.507a2.391,2.391,0,1,0,2.392,2.39A2.39,2.39,0,0,0,353.967,458.507Z" transform="translate(3.031 5.497)" fill="#098b41"/>
  </g>
</svg>
