<svg xmlns="http://www.w3.org/2000/svg" width="17" height="19" viewBox="0 0 17 19"><defs><style>.a,.e{fill:none;}.b{fill:#b6dffb;stroke:#0080ff;}.c,.d{stroke:none;}.d{fill:#0080ff;}</style></defs><g transform="translate(-195 -2380)"><g class="a" transform="translate(212 2380) rotate(90)"><path class="c" d="M11.9,0a4,4,0,0,1,3.492,2.049l2.515,4.5a4,4,0,0,1,0,3.9l-2.515,4.5A4,4,0,0,1,11.9,17H7.1a4,4,0,0,1-3.492-2.049l-2.515-4.5a4,4,0,0,1,0-3.9l2.515-4.5A4,4,0,0,1,7.1,0Z"/><path class="d" d="M 7.09689998626709 1 C 6.01117992401123 1 5.007710456848145 1.588760375976562 4.478070259094238 2.536529541015625 L 1.963369369506836 7.036529541015625 C 1.458919525146484 7.939229965209961 1.458919525146484 9.060770034790039 1.963359832763672 9.963459968566895 L 4.478070259094238 14.46347045898438 C 5.007710456848145 15.41123008728027 6.011190414428711 16 7.09689998626709 16 L 11.90310001373291 16 C 12.98880958557129 16 13.99229049682617 15.41123008728027 14.52193069458008 14.46347045898438 L 17.03663063049316 9.963470458984375 C 17.54108047485352 9.060770034790039 17.54108047485352 7.939229965209961 17.03663063049316 7.036529541015625 L 14.52193069458008 2.536529541015625 C 13.99229049682617 1.588760375976562 12.98882007598877 1 11.90310001373291 1 L 7.09689998626709 1 M 7.09689998626709 0 L 11.90310001373291 0 C 13.3521900177002 0 14.68797016143799 0.7837295532226562 15.39486980438232 2.048709869384766 L 17.90957069396973 6.548709869384766 C 18.58720970153809 7.761320114135742 18.58720970153809 9.238679885864258 17.90957069396973 10.45129013061523 L 15.39486980438232 14.95129013061523 C 14.68797016143799 16.21626091003418 13.3521900177002 17 11.90310001373291 17 L 7.09689998626709 17 C 5.647809982299805 17 4.312029838562012 16.21626091003418 3.605130195617676 14.95129013061523 L 1.090419769287109 10.45128059387207 C 0.4127902984619141 9.238679885864258 0.4127902984619141 7.761320114135742 1.090419769287109 6.548709869384766 L 3.605130195617676 2.048709869384766 C 4.312029838562012 0.7837295532226562 5.647809982299805 0 7.09689998626709 0 Z"/></g><g class="b" transform="translate(200 2386)"><circle class="c" cx="3.5" cy="3.5" r="3.5"/><circle class="e" cx="3.5" cy="3.5" r="3"/></g></g></svg>