<svg xmlns="http://www.w3.org/2000/svg" width="85" height="76" viewBox="0 0 85 76"><defs><style>.a{fill:#f89a99;}.b{fill:#cc3a39;font-size:46px;font-family:SegoeUI, Segoe UI;letter-spacing:-0.02em;}.c,.d{stroke:none;}.d{fill:#cc3a39;}</style></defs><g transform="translate(-1666 -2193)"><g class="a" transform="translate(1666 2193)"><path class="c" d="M 69.55543518066406 74.5 L 15.44456386566162 74.5 C 12.38592338562012 74.5 9.640473365783691 72.92227935791016 8.100503921508789 70.27958679199219 C 6.560544013977051 67.63690948486328 6.541423797607422 64.47047424316406 8.049373626708984 61.80939865112305 L 35.10480499267578 14.0645170211792 C 36.63390350341797 11.36610698699951 39.39846420288086 9.755106925964355 42.50000381469727 9.755106925964355 C 45.60153198242188 9.755106925964355 48.36609268188477 11.36609649658203 49.89518356323242 14.06450653076172 L 76.95062255859375 61.80939865112305 C 78.45857238769531 64.47047424316406 78.439453125 67.63690948486328 76.89949035644531 70.27958679199219 C 75.35952758789062 72.92227935791016 72.61407470703125 74.5 69.55543518066406 74.5 Z"/><path class="d" d="M 42.49999237060547 10.25511169433594 C 39.58090209960938 10.25511169433594 36.97895812988281 11.77133178710938 35.53981399536133 14.31101226806641 L 8.484382629394531 62.05590057373047 C 7.065139770507812 64.56045532226562 7.083122253417969 67.54061889648438 8.532516479492188 70.02785491943359 C 9.981895446777344 72.51509094238281 12.56583404541016 74 15.44455718994141 74 L 69.55543518066406 74 C 72.43415832519531 74 75.01810455322266 72.51509094238281 76.46748352050781 70.02785491943359 C 77.9168701171875 67.54061889648438 77.93486022949219 64.56045532226562 76.51561737060547 62.05590057373047 L 49.46017074584961 14.31101226806641 C 48.02102661132812 11.77133178710938 45.41908264160156 10.25511169433594 42.49999237060547 10.25511169433594 M 42.49999618530273 9.255119323730469 C 45.55321884155273 9.255119323730469 48.60643768310547 10.77607727050781 50.33019256591797 13.81800079345703 L 77.38563537597656 61.56288909912109 C 80.78546905517578 67.56259918212891 76.45146942138672 75 69.55543518066406 75 L 15.44455718994141 75 C 8.54852294921875 75 4.214523315429688 67.56259918212891 7.614356994628906 61.56288909912109 L 34.66979217529297 13.81800079345703 C 36.3935546875 10.77607727050781 39.44677734375 9.255119323730469 42.49999618530273 9.255119323730469 Z"/></g><text class="b" transform="translate(1716 2257)"><tspan x="-13.072" y="0">!</tspan></text></g></svg>