<svg xmlns="http://www.w3.org/2000/svg" xmlns:xlink="http://www.w3.org/1999/xlink" width="15.875" height="15.875" viewBox="0 0 47.295 41.849"><defs><style>.a{fill:red;}.b{clip-path:url(#a);}</style><clipPath id="a"><rect class="a" width="47.295" height="41.849" transform="translate(0 0)"/></clipPath></defs><g transform="translate(0 0)"><g class="b"><path class="a" d="M23.647,41.849a3.148,3.148,0,0,1-1.7-.495C17.141,38.284,1.359,27.348.1,15.57-.575,9.282,2.207,3.99,7.538,1.413A15.1,15.1,0,0,1,23.647,3.6,15.1,15.1,0,0,1,39.756,1.413c5.331,2.577,8.113,7.869,7.439,14.157-1.26,11.778-17.042,22.714-21.849,25.784a3.148,3.148,0,0,1-1.7.495"/></g></g></svg>