<svg xmlns="http://www.w3.org/2000/svg" xmlns:xlink="http://www.w3.org/1999/xlink" width="15.875" height="15.875" viewBox="0 0 47.295 41.849"><defs><style>.a{fill:#c1c1c1;}.b{clip-path:url(#a);}</style><clipPath id="a"><rect class="a" width="47.295" height="41.849" transform="translate(0 0)"/></clipPath></defs><g class="b" transform="translate(0 0)"><path class="a" d="M23.648,41.849a3.154,3.154,0,0,1-1.7-.495C17.142,38.283,1.359,27.348.1,15.57-.574,9.282,2.207,3.99,7.538,1.413A15.105,15.105,0,0,1,23.648,3.6,15.1,15.1,0,0,1,39.757,1.413c5.331,2.577,8.112,7.869,7.438,14.157C45.936,27.348,30.153,38.283,25.347,41.354a3.153,3.153,0,0,1-1.7.495M13.836,2.97A11.435,11.435,0,0,0,8.844,4.115c-4.14,2-6.294,6.164-5.762,11.136C4.23,25.969,20.345,36.77,23.564,38.826a.151.151,0,0,0,.168,0C26.95,36.77,43.065,25.969,44.213,15.251c.532-4.972-1.622-9.135-5.762-11.136A12.03,12.03,0,0,0,24.7,6.686L23.648,7.72,22.6,6.686a12.525,12.525,0,0,0-8.76-3.716"/></g></svg>