<svg xmlns="http://www.w3.org/2000/svg" width="22.247" height="15.698" viewBox="0 0 22.247 15.698">
  <g id="Group_980" data-name="Group 980" transform="translate(-289.912 -395.962)">
    <g id="Group_977" data-name="Group 977">
      <path id="Path_462" data-name="Path 462" d="M296.347,402.264h-4.835a1.58,1.58,0,0,0-1.551,1.143,1.542,1.542,0,0,0,1.489,1.935h4.906a1.51,1.51,0,0,0,1.462-1.928l-.01-.032A1.534,1.534,0,0,0,296.347,402.264Z" fill="#098b41"/>
    </g>
    <g id="Group_978" data-name="Group 978">
      <path id="Path_463" data-name="Path 463" d="M295.95,396.287h-4.622a1.43,1.43,0,0,0-1.372,1.143,1.509,1.509,0,0,0,1.318,1.934h4.663a1.359,1.359,0,0,0,1.234-.927l.013-.033A1.506,1.506,0,0,0,295.95,396.287Z" fill="#098b41"/>
    </g>
    <g id="Group_979" data-name="Group 979">
      <path id="Path_464" data-name="Path 464" d="M299.034,408.24h-7.522a1.579,1.579,0,0,0-1.551,1.143,1.542,1.542,0,0,0,1.489,1.934h7.584a1.515,1.515,0,0,0,1.515-1.518v-.046A1.515,1.515,0,0,0,299.034,408.24Z" fill="#098b41"/>
    </g>
    <circle id="Ellipse_462" data-name="Ellipse 462" cx="3.402" cy="3.402" r="3.402" transform="translate(298.887 395.962)" fill="#098b41"/>
    <circle id="Ellipse_463" data-name="Ellipse 463" cx="2.441" cy="2.441" r="2.441" transform="translate(307.278 397.579)" fill="#098b41"/>
    <circle id="Ellipse_464" data-name="Ellipse 464" cx="4.38" cy="4.38" r="4.38" transform="translate(301.92 402.9)" fill="#098b41"/>
  </g>
</svg>
