<svg xmlns="http://www.w3.org/2000/svg" width="24.998" height="23" viewBox="0 0 24.998 23">
  <g id="Group_865" data-name="Group 865" transform="translate(-1274.001 -465.998)">
    <g id="Union_28" data-name="Union 28" transform="translate(1273.999 463.999)" fill="none">
      <path d="M5,25a5,5,0,0,1-5-5V12A5,5,0,0,1,5,7h6.666a5,5,0,0,1,5-5H20a5,5,0,0,1,5,5V20a5,5,0,0,1-5,5Z" stroke="none"/>
      <path d="M 19.99979972839355 22.99839973449707 C 21.65423011779785 22.99839973449707 23.00020027160645 21.65242958068848 23.00020027160645 19.99799919128418 L 23.00020027160645 6.9992995262146 C 23.00020027160645 5.344869613647461 21.65423011779785 3.998899698257446 19.99979972839355 3.998899698257446 L 16.66710090637207 3.998899698257446 C 15.01317024230957 3.998899698257446 13.66760063171387 5.344869613647461 13.66760063171387 6.9992995262146 L 13.66760063171387 8.999300003051758 L 5.00130033493042 8.999300003051758 C 3.347370386123657 8.999300003051758 2.001800298690796 10.34486961364746 2.001800298690796 11.99879932403564 L 2.001800298690796 19.99799919128418 C 2.001800298690796 21.65242958068848 3.347370386123657 22.99839973449707 5.00130033493042 22.99839973449707 L 19.99979972839355 22.99839973449707 M 19.99979972839355 24.99839973449707 L 5.00130033493042 24.99839973449707 C 2.240100383758545 24.99839973449707 0.001800404395908117 22.76009941101074 0.001800404395908117 19.99799919128418 L 0.001800404395908117 11.99879932403564 C 0.001800404395908117 9.23759937286377 2.240100383758545 6.9992995262146 5.00130033493042 6.9992995262146 L 11.66760063171387 6.9992995262146 C 11.66760063171387 4.238099575042725 13.90590000152588 1.998899579048157 16.66710090637207 1.998899579048157 L 19.99979972839355 1.998899579048157 C 22.76099967956543 1.998899579048157 25.00020027160645 4.238099575042725 25.00020027160645 6.9992995262146 L 25.00020027160645 19.99799919128418 C 25.00020027160645 22.76009941101074 22.76099967956543 24.99839973449707 19.99979972839355 24.99839973449707 Z" stroke="none" fill="#0080ff"/>
    </g>
    <line id="Line_402" data-name="Line 402" x1="12.772" transform="translate(1280.499 479.832)" fill="none" stroke="#0080ff" stroke-linecap="round" stroke-width="2"/>
  </g>
</svg>
