<svg id="Group_825" data-name="Group 825" xmlns="http://www.w3.org/2000/svg" width="40.59" height="41.195" viewBox="0 0 40.59 41.195">
  <path id="Path_271" data-name="Path 271" d="M164.618,581.552l.008-.006a1.537,1.537,0,0,0,.19-2.276,9.777,9.777,0,0,0-14.04,0,1.537,1.537,0,0,0,.19,2.276l.008.006a1.568,1.568,0,0,0,2.079-.174,6.666,6.666,0,0,1,9.486,0A1.568,1.568,0,0,0,164.618,581.552Z" transform="translate(-137.473 -553.169)" fill="#161615"/>
  <circle id="Ellipse_433" data-name="Ellipse 433" cx="2.008" cy="2.008" r="2.008" transform="translate(12.369 14.34)" fill="#161615"/>
  <circle id="Ellipse_434" data-name="Ellipse 434" cx="2.008" cy="2.008" r="2.008" transform="translate(24.49 14.34)" fill="#161615"/>
  <path id="Path_272" data-name="Path 272" d="M182.229,585.664c1.5,2,2.612,3.891,2.664,4.647a2.665,2.665,0,0,1-5.329.017c.053-.767,1.166-2.659,2.665-4.664m0-4.872s-5.763,6.336-5.763,9.519a5.763,5.763,0,0,0,11.527,0c0-3.183-5.763-9.519-5.763-9.519Z" transform="translate(-147.401 -554.878)" fill="#161615"/>
  <path id="Path_273" data-name="Path 273" d="M154.059,575.932a17.2,17.2,0,1,1,12.628-13.184,1.534,1.534,0,0,0,.663,1.59h0a1.55,1.55,0,0,0,2.372-.965,20.3,20.3,0,1,0-14.857,15.551,1.543,1.543,0,0,0,1.071-1.953h0A1.553,1.553,0,0,0,154.059,575.932Z" transform="translate(-129.566 -538.976)" fill="#161615"/>
</svg>
