<svg id="Component_91_39" data-name="Component 91 – 39" xmlns="http://www.w3.org/2000/svg" width="40.578" height="40.579" viewBox="0 0 40.578 40.579">
  <g id="Group_833" data-name="Group 833">
    <g id="Group_832" data-name="Group 832">
      <path id="Path_277" data-name="Path 277" d="M149.909,209.918A20.289,20.289,0,1,1,170.2,189.629,20.312,20.312,0,0,1,149.909,209.918Zm0-37.48A17.191,17.191,0,1,0,167.1,189.629,17.21,17.21,0,0,0,149.909,172.439Z" transform="translate(-129.62 -169.34)" fill="#161615"/>
    </g>
    <circle id="Ellipse_439" data-name="Ellipse 439" cx="2.008" cy="2.008" r="2.008" transform="translate(12.369 12.704)" fill="#161615"/>
    <circle id="Ellipse_440" data-name="Ellipse 440" cx="2.008" cy="2.008" r="2.008" transform="translate(24.491 12.704)" fill="#161615"/>
    <path id="Path_280" data-name="Path 280" d="M279.8,295.618l-.008.007a1.536,1.536,0,0,0-.19,2.276,9.776,9.776,0,0,0,14.039,0,1.536,1.536,0,0,0-.19-2.277l-.008-.006a1.567,1.567,0,0,0-2.078.174,6.666,6.666,0,0,1-9.486,0A1.568,1.568,0,0,0,279.8,295.618Z" transform="translate(-266.331 -270.337)" fill="#161615"/>
  </g>
</svg>
