<svg id="Component_91_39" data-name="Component 91 – 39" xmlns="http://www.w3.org/2000/svg" width="40.578" height="40.579" viewBox="0 0 40.578 40.579">
  <g id="Group_833" data-name="Group 833">
    <g id="Group_832" data-name="Group 832">
      <path id="Path_277" data-name="Path 277" d="M149.909,209.918A20.289,20.289,0,1,1,170.2,189.629,20.312,20.312,0,0,1,149.909,209.918Zm0-37.48A17.191,17.191,0,1,0,167.1,189.629,17.21,17.21,0,0,0,149.909,172.439Z" transform="translate(-129.62 -169.34)" fill="#161615"/>
    </g>
    <circle id="Ellipse_439" data-name="Ellipse 439" cx="2.008" cy="2.008" r="2.008" transform="translate(12.369 12.704)" fill="#161615"/>
    <circle id="Ellipse_440" data-name="Ellipse 440" cx="2.008" cy="2.008" r="2.008" transform="translate(24.491 12.704)" fill="#161615"/>
    <path id="Path_278" data-name="Path 278" d="M165.849,203.013h0v-.043h-18.6v.048a9.469,9.469,0,1,0,18.6,0Zm-9.3,8.118a6.381,6.381,0,0,1-6.235-5.063h12.469A6.381,6.381,0,0,1,156.549,211.132Z" transform="translate(-136.26 -182.129)" fill="#161615"/>
  </g>
</svg>
