<svg xmlns="http://www.w3.org/2000/svg" width="61.523" height="41.643" viewBox="0 0 61.523 41.643">
  <path id="Path_399" data-name="Path 399" d="M424.7,904.362h-5.641s-5.256-.482-8.444-2.481c-3.83-2.4-8.807-6.494-12-6.294-3.857.241-12.68,9.885-14.031,11.283s-1.633,3.48,0,4.821a4.47,4.47,0,0,0,5.641-.337c1.977-1.592,4.966-4.918,8.245-4.966,2.9-.043,16.78,10.945,17.985,12.585s1.2,3.832-.289,4.821c-2.17,1.447-5.738-.579-5.738-.579s.975,4.38-2.7,4.677c-1.591.129-5.352-1.832-5.352-1.832s.53,3.809-1.929,4.629-5.594-1.591-5.594-1.591-.193,4.725-4.291,4.05-8.776-7.425-10.415-8.776-2.6-1.35-5.062-1.35h-7.908" transform="translate(-365.176 -893.583)" fill="none" stroke="#098b41" stroke-linecap="round" stroke-linejoin="round" stroke-width="4"/>
</svg>
