<svg xmlns="http://www.w3.org/2000/svg" width="18.646" height="36.522" viewBox="0 0 18.646 36.522">
  <g id="Group_914" data-name="Group 914" transform="translate(0.186 0.187)">
    <g id="Group_915" data-name="Group 915">
      <circle id="Ellipse_434" data-name="Ellipse 434" cx="3.562" cy="3.562" r="3.562" transform="translate(4.132 0.313)" fill="none" stroke="#000" stroke-miterlimit="10" stroke-width="1"/>
      <path id="Path_6189" data-name="Path 6189" d="M5.272,10.175a1.216,1.216,0,0,0-.953.627C3.877,11.713.3,16.757.508,20.384c.111,1.961,1.684,1.381,1.684,1.381a7.377,7.377,0,0,0,1.685-2.872A32.31,32.31,0,0,1,5.81,14.751L3.491,37.119" transform="translate(-0.187 -3.806)" fill="none" stroke="#000" stroke-linecap="round" stroke-linejoin="round" stroke-width="1"/>
      <path id="Path_6190" data-name="Path 6190" d="M20.705,36.533c-.3-3.1-.99-10.325-1.077-11.94a40.391,40.391,0,0,0-.552-4.446l-.525-5.854s3.176,6.932,4.032,7.374A1.286,1.286,0,0,0,24.378,20.2a48.98,48.98,0,0,0-3.341-8.588c-1.187-2.265-2.237-2.32-2.789-2.292-.145.008-.533.034-1.035.071" transform="translate(-6.439 -3.485)" fill="none" stroke="#000" stroke-linecap="round" stroke-linejoin="round" stroke-width="1"/>
      <path id="Path_6191" data-name="Path 6191" d="M9.225,47.963c.431-1.489,2.655-9.193,3.08-11.243,0,0,2.513,10.991,3.01,11.875" transform="translate(-3.451 -13.735)" fill="none" stroke="#000" stroke-linecap="round" stroke-linejoin="round" stroke-width="1"/>
      <path id="Path_6192" data-name="Path 6192" d="M8.234,27.213a8.89,8.89,0,0,0,7.318-.11" transform="translate(-3.08 -10.138)" fill="none" stroke="#000" stroke-linecap="round" stroke-linejoin="round" stroke-width="1"/>
      <path id="Path_6193" data-name="Path 6193" d="M7.35,55.665H2.278s1.1-2.918,2.734-2.633S7.35,55.665,7.35,55.665Z" transform="translate(-0.852 -19.83)" fill="none" stroke="#000" stroke-linecap="round" stroke-linejoin="round" stroke-width="1"/>
      <path id="Path_6194" data-name="Path 6194" d="M23.381,55.665H18.309s1.1-2.918,2.734-2.633S23.381,55.665,23.381,55.665Z" transform="translate(-6.849 -19.83)" fill="none" stroke="#000" stroke-linecap="round" stroke-linejoin="round" stroke-width="1"/>
      <line id="Line_456" data-name="Line 456" x1="2.394" y1="0.248" transform="translate(2.42 17.637)" fill="none" stroke="#000" stroke-linecap="round" stroke-linejoin="round" stroke-width="1"/>
      <path id="Path_6195" data-name="Path 6195" d="M.97,28.177a30.641,30.641,0,0,1,3.737,5.164" transform="translate(-0.363 -10.54)" fill="none" stroke="#000" stroke-linecap="round" stroke-linejoin="round" stroke-width="1"/>
      <line id="Line_457" data-name="Line 457" y1="0.143" x2="2.384" transform="translate(13.052 17.637)" fill="none" stroke="#000" stroke-linecap="round" stroke-linejoin="round" stroke-width="1"/>
      <path id="Path_6196" data-name="Path 6196" d="M25.493,28.735a49.7,49.7,0,0,0-4.192,5.01" transform="translate(-7.968 -10.749)" fill="none" stroke="#000" stroke-linecap="round" stroke-linejoin="round" stroke-width="1"/>
    </g>
  </g>
</svg>
