<svg xmlns="http://www.w3.org/2000/svg" width="22" height="20" viewBox="0 0 22 20">
  <g id="Group_865" data-name="Group 865" transform="translate(-0.236 0.093)">
    <g id="Union_28" data-name="Union 28" transform="translate(0.236 -0.093)" fill="none">
      <path d="M5,20a5,5,0,0,1-5-5V9.348a5,5,0,0,1,5-5h5.309A5,5,0,0,1,15.267,0H17a5,5,0,0,1,5,5V15a5,5,0,0,1-5,5Z" stroke="none"/>
      <path d="M 17.00010108947754 17.99979972839355 C 18.65402984619141 17.99979972839355 19.99960136413574 16.65423011779785 19.99960136413574 15.00029945373535 L 19.99960136413574 5.000400066375732 C 19.99960136413574 3.345969915390015 18.65402984619141 1.99999988079071 17.00010108947754 1.99999988079071 L 15.26670074462891 1.99999988079071 C 13.76443099975586 1.99999988079071 12.4854907989502 3.120519876480103 12.29179096221924 4.606430053710938 L 12.06477069854736 6.347899913787842 L 4.999500751495361 6.347899913787842 C 3.34557056427002 6.347899913787842 2.000000715255737 7.693870067596436 2.000000715255737 9.348299980163574 L 2.000000715255737 15.00029945373535 C 2.000000715255737 16.65423011779785 3.34557056427002 17.99979972839355 4.999500751495361 17.99979972839355 L 17.00010108947754 17.99979972839355 M 17.00010108947754 19.99979972839355 L 4.999500751495361 19.99979972839355 C 2.238300800323486 19.99979972839355 6.820678777330613e-07 17.76149940490723 6.820678777330613e-07 15.00029945373535 L 6.820678777330613e-07 9.348299980163574 C 6.820678777330613e-07 6.586199760437012 2.238300800323486 4.347899913787842 4.999500751495361 4.347899913787842 L 10.30857086181641 4.347899913787842 C 10.62835025787354 1.894849896430969 12.72661113739014 -1.358032193365943e-07 15.26670074462891 -1.358032193365943e-07 L 17.00010108947754 -1.358032193365943e-07 C 19.76130104064941 -1.358032193365943e-07 21.99960136413574 2.239199876785278 21.99960136413574 5.000400066375732 L 21.99960136413574 15.00029945373535 C 21.99960136413574 17.76149940490723 19.76130104064941 19.99979972839355 17.00010108947754 19.99979972839355 Z" stroke="none" fill="#0080ff"/>
    </g>
    <line id="Line_402" data-name="Line 402" x1="11.361" transform="translate(5.78 12.306)" fill="none" stroke="#0080ff" stroke-linecap="round" stroke-width="2"/>
  </g>
</svg>
