<svg xmlns="http://www.w3.org/2000/svg" width="27.285" height="27.37" viewBox="0 0 27.285 27.37">
  <g id="Group_911" data-name="Group 911" transform="translate(0.307 -82.584)">
    <g id="Group_912" data-name="Group 912" transform="translate(0 83)">
      <path id="Path_6179" data-name="Path 6179" d="M53.228,21.855,50.75,22.9a1.787,1.787,0,0,0-1.094,1.648v5.279a.659.659,0,0,0,.248.515l1.3,1.044a.4.4,0,0,1,.153.316v8.157h3.885V31.7a.4.4,0,0,1,.153-.316l1.3-1.044a.659.659,0,0,0,.247-.515V24.544A1.787,1.787,0,0,0,55.857,22.9l-2.477-1.042A.2.2,0,0,0,53.228,21.855Z" transform="translate(-30.472 -13.402)" fill="none" stroke="#000" stroke-miterlimit="10" stroke-width="1"/>
      <rect id="Rectangle_1723" data-name="Rectangle 1723" width="3.522" height="4.386" rx="1.761" transform="translate(21.059 4.034)" fill="none" stroke="#000" stroke-miterlimit="10" stroke-width="1"/>
      <line id="Line_453" data-name="Line 453" y1="8.011" transform="translate(22.831 18.255)" fill="none" stroke="#000" stroke-miterlimit="10" stroke-width="1"/>
      <path id="Path_6180" data-name="Path 6180" d="M24.508,26.415l-2.235.94a1.612,1.612,0,0,0-.987,1.486V33.6a.6.6,0,0,0,.223.464l1.177.942a.364.364,0,0,1,.137.285v7.359H26.33V35.3a.365.365,0,0,1,.137-.285l1.178-.942a.6.6,0,0,0,.223-.464V28.841a1.612,1.612,0,0,0-.987-1.486l-2.235-.94A.177.177,0,0,0,24.508,26.415Z" transform="translate(-13.063 -16.202)" fill="none" stroke="#000" stroke-miterlimit="10" stroke-width="1"/>
      <path id="Path_6181" data-name="Path 6181" d="M27.253,16.119h0a1.589,1.589,0,0,0-1.589,1.589v.779a1.589,1.589,0,0,0,3.178,0v-.779A1.589,1.589,0,0,0,27.253,16.119Z" transform="translate(-15.749 -9.892)" fill="none" stroke="#000" stroke-miterlimit="10" stroke-width="1"/>
      <line id="Line_454" data-name="Line 454" y1="7.227" transform="translate(11.514 19.057)" fill="none" stroke="#000" stroke-miterlimit="10" stroke-width="1"/>
      <path id="Path_6182" data-name="Path 6182" d="M3.407,30.529l-2.016.848A1.454,1.454,0,0,0,.5,32.718v4.3a.538.538,0,0,0,.2.419l1.062.85a.33.33,0,0,1,.124.258V45.18H5.05V38.541a.33.33,0,0,1,.124-.258l1.062-.85a.538.538,0,0,0,.2-.419v-4.3a1.454,1.454,0,0,0-.891-1.341l-2.016-.848A.161.161,0,0,0,3.407,30.529Z" transform="translate(-0.307 -18.727)" fill="none" stroke="#000" stroke-miterlimit="10" stroke-width="1"/>
      <path id="Path_6183" data-name="Path 6183" d="M5.883,21.241h0a1.434,1.434,0,0,0-1.434,1.434v.7a1.434,1.434,0,0,0,2.867,0v-.7A1.434,1.434,0,0,0,5.883,21.241Z" transform="translate(-2.73 -13.035)" fill="none" stroke="#000" stroke-miterlimit="10" stroke-width="1"/>
      <line id="Line_455" data-name="Line 455" y1="6.52" transform="translate(3.162 19.78)" fill="none" stroke="#000" stroke-miterlimit="10" stroke-width="1"/>
      <path id="Path_6184" data-name="Path 6184" d="M46.082,51.47V41.891a1.125,1.125,0,1,0-2.25,0v1.057" transform="translate(-26.898 -25.017)" fill="none" stroke="#000" stroke-miterlimit="10" stroke-width="1"/>
      <path id="Path_6185" data-name="Path 6185" d="M2.026,25.856a14.08,14.08,0,0,1-1.526,0" transform="translate(-0.307 -15.867)" fill="none" stroke="#000" stroke-miterlimit="10" stroke-width="1"/>
      <path id="Path_6186" data-name="Path 6186" d="M17.2,21.123A24.822,24.822,0,0,1,11.97,22.63" transform="translate(-7.346 -12.963)" fill="none" stroke="#000" stroke-miterlimit="10" stroke-width="1"/>
      <path id="Path_6187" data-name="Path 6187" d="M40.137.8a23.8,23.8,0,0,1-7.159,6.431" transform="translate(-20.238 -0.489)" fill="none" stroke="#000" stroke-miterlimit="10" stroke-width="1"/>
      <path id="Path_6188" data-name="Path 6188" d="M45.625,4.462V.678l-3.7,1.147" transform="translate(-25.726 -0.416)" fill="none" stroke="#000" stroke-miterlimit="10" stroke-width="1"/>
    </g>
  </g>
</svg>
