<svg xmlns="http://www.w3.org/2000/svg" width="25.184" height="29.181" viewBox="0 0 25.184 29.181">
  <g id="Group_907" data-name="Group 907" transform="translate(0.254 0.264)">
    <g id="Group_908" data-name="Group 908" transform="translate(0 0)">
      <path id="Path_6171" data-name="Path 6171" d="M24.684,15.655V34.419a1.314,1.314,0,0,1-1.314,1.314H1.814A1.314,1.314,0,0,1,.5,34.419v-8.39a3.512,3.512,0,0,1,1.53-2.9l4.947-3.383a.533.533,0,0,1,.833.44v3.681a.36.36,0,0,0,.6.27l4.843-4.291a.532.532,0,0,1,.886.4v2.517a1.414,1.414,0,0,0,1.414,1.414h1.181A1.414,1.414,0,0,0,18.1,23.141l2.371-7.828a1.274,1.274,0,0,1,1.227-.932H23.41A1.274,1.274,0,0,1,24.684,15.655Z" transform="translate(-0.254 -7.317)" fill="none" stroke="#000" stroke-miterlimit="10" stroke-width="1"/>
      <path id="Path_6172" data-name="Path 6172" d="M8.849,40.88v3.554a.91.91,0,0,1-1.82,0V40.88a.91.91,0,0,1,1.82,0Z" transform="translate(-3.576 -20.337)" fill="none" stroke="#000" stroke-miterlimit="10" stroke-width="1"/>
      <path id="Path_6173" data-name="Path 6173" d="M17.653,40.88v3.554a.91.91,0,0,1-1.82,0V40.88a.91.91,0,0,1,1.82,0Z" transform="translate(-8.056 -20.337)" fill="none" stroke="#000" stroke-miterlimit="10" stroke-width="1"/>
      <path id="Path_6174" data-name="Path 6174" d="M26.457,40.88v3.554a.91.91,0,0,1-1.82,0V40.88a.91.91,0,0,1,1.82,0Z" transform="translate(-12.535 -20.337)" fill="none" stroke="#000" stroke-miterlimit="10" stroke-width="1"/>
      <path id="Path_6175" data-name="Path 6175" d="M35.261,40.88v3.554a.91.91,0,0,1-1.82,0V40.88a.91.91,0,0,1,1.82,0Z" transform="translate(-17.015 -20.337)" fill="none" stroke="#000" stroke-miterlimit="10" stroke-width="1"/>
      <path id="Path_6176" data-name="Path 6176" d="M29.465,3.6a6.135,6.135,0,0,0-4.712-.673,1.241,1.241,0,0,1-1.088-.28A6.95,6.95,0,0,0,18.682,1.2,2.711,2.711,0,0,1,17.41.948,5.69,5.69,0,0,0,13.4.764a1.147,1.147,0,0,0-.587,1.842A6.867,6.867,0,0,0,15,4.081a12.629,12.629,0,0,0,8.448,1.194,3.242,3.242,0,0,1,1.324,0c1.074.228,3.252.552,4.644-.18A.863.863,0,0,0,29.465,3.6Z" transform="translate(-6.384 -0.254)" fill="none" stroke="#000" stroke-miterlimit="10" stroke-width="1"/>
      <path id="Path_6177" data-name="Path 6177" d="M21.262,1.9a8.981,8.981,0,0,0-3.645.662" transform="translate(-8.964 -0.96)" fill="none" stroke="#000" stroke-linecap="round" stroke-miterlimit="10" stroke-width="1"/>
      <path id="Path_6178" data-name="Path 6178" d="M15.737,7.231a22.875,22.875,0,0,1-3.561-.1c-1.892-.463-1.051-2.113.332-1.6" transform="translate(-5.636 -2.767)" fill="none" stroke="#000" stroke-linecap="round" stroke-miterlimit="10" stroke-width="1"/>
    </g>
  </g>
</svg>
