<svg xmlns="http://www.w3.org/2000/svg" width="24.943" height="26.503" viewBox="0 0 24.943 26.503">
  <g id="Group_904" data-name="Group 904" transform="translate(0.357 0.357)">
    <g id="Group_905" data-name="Group 905" transform="translate(0 0)">
      <path id="Rectangle_1722" data-name="Rectangle 1722" d="M2.832,0H21.111a2.832,2.832,0,0,1,2.832,2.832v0A2.833,2.833,0,0,1,21.11,5.666H2.832A2.832,2.832,0,0,1,0,2.833v0A2.832,2.832,0,0,1,2.832,0Z" transform="translate(0.143 19.98)" fill="none" stroke="#000" stroke-miterlimit="10" stroke-width="1"/>
      <path id="Path_6170" data-name="Path 6170" d="M31.063,11.574,29.587,13.05a.194.194,0,0,1-.331-.137V1.983a1.484,1.484,0,1,0-2.968,0v10.93a.194.194,0,0,1-.331.137l-1.476-1.476a1.484,1.484,0,0,0-2.1,2.1l3.291,3.291,1.049,1.049a1.483,1.483,0,0,0,2.1,0l1.049-1.049,3.291-3.291a1.484,1.484,0,1,0-2.1-2.1Z" transform="translate(-15.657 -0.356)" fill="none" stroke="#000" stroke-miterlimit="10" stroke-width="1"/>
    </g>
  </g>
</svg>
