<svg xmlns="http://www.w3.org/2000/svg" width="189.281" height="41.167" viewBox="0 0 189.281 41.167"><defs><style>.a{fill:#42d39d;}.b{fill:#ff4c46;}.c{fill:#030000;}</style></defs><g transform="translate(-11.336 130.816)"><path class="a" d="M74.149-119.9H71.721v4.174H66.878v6.473l10.387,5.706-10.387-3.041v11.331h4.843V-91.1h2.428v-4.166h4.843V-115.73H74.149Z" transform="translate(-23.507 -4.618)"/><path class="b" d="M46.646-108.348H44.218v4.467H39.375v3.814l5.6-3.166-5.6,4.509v8.354h4.843v4.166h2.428v-4.166h4.843v-13.51H46.646Z" transform="translate(-11.867 -9.509)"/><path class="c" d="M66.847-124.2l2.341,3.124-4.727,3.542v-1.112a12.183,12.183,0,0,0-12.169-12.169h-33.6v26.223l4.083-2.308v-19.831H52.292a8.1,8.1,0,0,1,8.085,8.085v4.171l-4.035,3.023L41.375-119.4,11.336-95.386l2.55,3.19,5.884-4.7a12.156,12.156,0,0,0,11.092,7.219h33.6v-20.5l-4.084,1.763v14.657H30.862a8.1,8.1,0,0,1-7.753-5.8l18.72-14.964,14.887,7.9,14.919-11.177,2.341,3.125,4.676-10.933Z"/><g transform="translate(78.387 -121.082)"><path class="c" d="M139.736-108.758a1.154,1.154,0,0,0-1.154,1.154v5.838a1.153,1.153,0,0,0,1.154,1.154,1.154,1.154,0,0,0,1.154-1.154V-107.6A1.154,1.154,0,0,0,139.736-108.758Z" transform="translate(-132.24 111.746)"/><path class="c" d="M146.1-102.856a1.154,1.154,0,0,0,1.154-1.154v-4.174a3.453,3.453,0,0,1,3.449-3.449,1.154,1.154,0,0,0,1.154-1.154,1.154,1.154,0,0,0-1.154-1.154,5.763,5.763,0,0,0-5.756,5.756v4.174A1.153,1.153,0,0,0,146.1-102.856Z" transform="translate(-134.934 113.939)"/><circle class="c" cx="1.233" cy="1.233" r="1.233" transform="translate(6.262 0.03)"/><path class="c" d="M196.825-108.758a1.154,1.154,0,0,0-1.154,1.154v5.838a1.153,1.153,0,0,0,1.154,1.154,1.154,1.154,0,0,0,1.154-1.154V-107.6A1.154,1.154,0,0,0,196.825-108.758Z" transform="translate(-156.402 111.746)"/><circle class="c" cx="1.233" cy="1.233" r="1.233" transform="translate(39.189 0.03)"/><path class="c" d="M164.373-104.456a1.15,1.15,0,0,0-1.413-.816,3.238,3.238,0,0,1-.836.108,3.238,3.238,0,0,1-3.235-3.235,3.238,3.238,0,0,1,3.235-3.235,3.238,3.238,0,0,1,3.235,3.235v4.388a1.153,1.153,0,0,0,1.154,1.154,1.154,1.154,0,0,0,1.154-1.154V-108.4a5.548,5.548,0,0,0-5.542-5.542,5.548,5.548,0,0,0-5.542,5.542,5.548,5.548,0,0,0,5.542,5.542,5.526,5.526,0,0,0,1.432-.187A1.153,1.153,0,0,0,164.373-104.456Z" transform="translate(-139.859 113.939)"/><path class="c" d="M179.3-102.856a1.154,1.154,0,0,0,1.154-1.154v-5.666a1.959,1.959,0,0,1,1.956-1.956,1.959,1.959,0,0,1,1.956,1.956v5.666a1.153,1.153,0,0,0,1.154,1.154,1.154,1.154,0,0,0,1.154-1.154v-5.666a4.268,4.268,0,0,0-4.264-4.264,4.268,4.268,0,0,0-4.264,4.264v5.666A1.153,1.153,0,0,0,179.3-102.856Z" transform="translate(-148.986 113.939)"/><path class="c" d="M181.1-79.655l5.542-5.144a1.73,1.73,0,0,0,.092-2.446,1.731,1.731,0,0,0-2.446-.091l-5.724,5.313-5.688-5.31a1.731,1.731,0,0,0-2.446.084,1.73,1.73,0,0,0,.084,2.446l13.811,12.894a1.728,1.728,0,0,0,1.181.465,1.727,1.727,0,0,0,1.265-.55,1.731,1.731,0,0,0-.084-2.446Z" transform="translate(-145.522 102.875)"/><path class="c" d="M174.342-70.688,170.753-67.4a1.729,1.729,0,0,0-.107,2.444,1.724,1.724,0,0,0,1.276.562,1.724,1.724,0,0,0,1.169-.455l3.589-3.288a1.729,1.729,0,0,0,.107-2.444A1.73,1.73,0,0,0,174.342-70.688Z" transform="translate(-145.618 95.826)"/><path class="c" d="M215.162-87.8h-9.328a1.73,1.73,0,0,0-1.73,1.73,1.73,1.73,0,0,0,1.73,1.73h9.328a1.5,1.5,0,0,1,1.493,1.493,1.5,1.5,0,0,1-1.493,1.493h-9.328a1.73,1.73,0,0,0-1.73,1.73v6.447a1.73,1.73,0,0,0,1.73,1.73,1.73,1.73,0,0,0,1.73-1.73V-77.89h7.6a4.96,4.96,0,0,0,4.954-4.954A4.96,4.96,0,0,0,215.162-87.8Z" transform="translate(-159.971 102.875)"/><path class="c" d="M288.05-87.8h-5.292a5.773,5.773,0,0,0-5.767,5.767v8.858a1.73,1.73,0,0,0,1.73,1.73,1.73,1.73,0,0,0,1.73-1.73v-8.858a2.309,2.309,0,0,1,2.307-2.307h5.292a1.5,1.5,0,0,1,1.493,1.493,1.5,1.5,0,0,1-1.493,1.493h-3.979a2.151,2.151,0,0,0-2,1.346,2.149,2.149,0,0,0,.494,2.358l5.863,5.712a1.726,1.726,0,0,0,1.208.491,1.724,1.724,0,0,0,1.239-.523,1.73,1.73,0,0,0-.032-2.447l-3.568-3.477h.775A4.959,4.959,0,0,0,293-82.844,4.959,4.959,0,0,0,288.05-87.8Z" transform="translate(-190.818 102.875)"/><path class="c" d="M329.289-87.8h-3.223a6.621,6.621,0,0,0-6.613,6.614v8.01a1.73,1.73,0,0,0,1.73,1.73,1.73,1.73,0,0,0,1.73-1.73v-8.01a3.157,3.157,0,0,1,3.153-3.154h3.223a1.73,1.73,0,0,0,1.73-1.73A1.73,1.73,0,0,0,329.289-87.8Z" transform="translate(-208.789 102.875)"/><path class="c" d="M312.663-87.8h-4.53a1.73,1.73,0,0,0-1.73,1.73,1.73,1.73,0,0,0,1.73,1.73h4.53a1.73,1.73,0,0,0,1.73-1.73A1.73,1.73,0,0,0,312.663-87.8Z" transform="translate(-203.266 102.875)"/><path class="c" d="M149.123-86.068a1.73,1.73,0,0,0-1.73-1.73H135.765a8.187,8.187,0,0,0-8.178,8.178,8.187,8.187,0,0,0,8.178,8.178h11.628a1.73,1.73,0,0,0,1.73-1.73,1.73,1.73,0,0,0-1.73-1.73H135.765a4.722,4.722,0,0,1-4.717-4.717,4.722,4.722,0,0,1,4.717-4.717h11.628A1.73,1.73,0,0,0,149.123-86.068Z" transform="translate(-127.587 102.875)"/><path class="c" d="M139.6-76.62a1.73,1.73,0,0,0-1.73,1.73,1.73,1.73,0,0,0,1.73,1.73h9.967a1.731,1.731,0,0,0,1.73-1.73,1.731,1.731,0,0,0-1.73-1.73Z" transform="translate(-131.937 98.145)"/><path class="c" d="M257.163-86.068a1.73,1.73,0,0,0-1.73-1.73H243.8a8.187,8.187,0,0,0-8.177,8.178,8.187,8.187,0,0,0,8.177,8.178h11.628a1.73,1.73,0,0,0,1.73-1.73,1.73,1.73,0,0,0-1.73-1.73H243.8a4.722,4.722,0,0,1-4.717-4.717,4.722,4.722,0,0,1,4.717-4.717h11.628A1.73,1.73,0,0,0,257.163-86.068Z" transform="translate(-173.312 102.875)"/><path class="c" d="M247.635-76.62a1.73,1.73,0,0,0-1.73,1.73,1.73,1.73,0,0,0,1.73,1.73H257.6a1.731,1.731,0,0,0,1.73-1.73,1.731,1.731,0,0,0-1.73-1.73Z" transform="translate(-177.662 98.145)"/></g></g></svg>