<svg xmlns="http://www.w3.org/2000/svg" width="34.277" height="34.217" viewBox="0 0 34.277 34.217"><defs><style>.a{fill:#e3f7ff;}.b{fill:#007aff;}</style></defs><g transform="translate(335.561 -72.188)"><g transform="translate(-335.561 76.326)"><path class="a" d="M-326.642,122.277a3.923,3.923,0,0,1-3.919-3.919V94.578h7.838v23.78A3.923,3.923,0,0,1-326.642,122.277Z" transform="translate(331.751 -93.388)"/><path class="b" d="M-327.723,91.957v22.591a2.733,2.733,0,0,1-2.729,2.729,2.732,2.732,0,0,1-2.729-2.729V91.957h5.459m2.379-2.379h-10.217v24.97a5.109,5.109,0,0,0,5.109,5.109h0a5.109,5.109,0,0,0,5.109-5.109V89.578Z" transform="translate(335.561 -89.578)"/></g><g transform="translate(-331.573 72.188)"><rect class="a" width="25.181" height="27.013" transform="translate(1.19 1.19)"/><path class="b" d="M-293.619,74.567V99.2h-22.8V74.567h22.8m2.379-2.379H-318.8v29.393h27.56V72.188Z" transform="translate(318.8 -72.188)"/></g><g transform="translate(-330.452 78.054)"><path class="a" d="M-302.928,127.811a8.776,8.776,0,0,0,1.287-4.695V101.84H-277.6V122.8a5.013,5.013,0,0,1-5.008,5.007Z" transform="translate(305.584 -100.65)"/><path class="b" d="M-287.3,99.219v19.774a3.822,3.822,0,0,1-3.818,3.818h-18.437a10.318,10.318,0,0,0,.6-3.5V99.219H-287.3m2.379-2.379h-26.416v22.467a7.118,7.118,0,0,1-2.753,5.884h22.971a6.2,6.2,0,0,0,6.2-6.2V96.84Z" transform="translate(314.091 -96.84)"/></g><g transform="translate(-323.695 82.754)"><path class="b" d="M-285.69,116.6h1.821l.976,3.84V116.6h1.967v9.567h-1.967l-1.029-4v4h-1.768Z" transform="translate(285.69 -116.595)"/></g><g transform="translate(-318.176 85.023)"><path class="b" d="M-262.495,126.13h2.839l.252,1.359H-261v1.731h1.208v1.258H-261v1.591h1.53l-.252,1.359h-2.779Z" transform="translate(262.495 -126.13)"/><path class="b" d="M-243.365,126.13h1.49l-1.148,7.3h-1.329l-.6-3.805-.594,3.805h-1.329l-1.148-7.3h1.49l.463,4.248.594-4.248h1.057l.584,4.248Z" transform="translate(251.469 -126.13)"/><path class="b" d="M-220.119,133.429l-.262-1.359h1.57q.171,0,.171-.151V130.59c0-.1-.02-.161-.06-.181a.52.52,0,0,0-.211-.03h-.755a1.817,1.817,0,0,1-.307-.025.578.578,0,0,1-.262-.116.6.6,0,0,1-.181-.252,1.175,1.175,0,0,1-.065-.433v-2.476a.978.978,0,0,1,.237-.69.976.976,0,0,1,.75-.257h2.013l.252,1.359h-1.651q-.181,0-.181.161v1.329a.175.175,0,0,0,.055.151.28.28,0,0,0,.166.04h.916a.785.785,0,0,1,.539.166.75.75,0,0,1,.186.579v2.406a1.2,1.2,0,0,1-.247.856,1.2,1.2,0,0,1-.871.252Z" transform="translate(230.478 -126.13)"/></g><rect class="b" width="9.037" height="1.585" rx="0.792" transform="translate(-323.545 94.6)"/><rect class="b" width="14.605" height="1.585" rx="0.792" transform="translate(-323.545 97.469)"/></g></svg>