<svg xmlns="http://www.w3.org/2000/svg" xmlns:xlink="http://www.w3.org/1999/xlink"  viewBox="0 0 17.019 22.551">
  <defs>
    <clipPath id="clip-path">
      <rect id="Rectangle_1553" data-name="Rectangle 1553" width="17.019" height="22.551" fill="#06f"/>
    </clipPath>
  </defs>
  <g id="Group_58" data-name="Group 58" transform="translate(0 0)">
    <g id="Group_56" data-name="Group 56" transform="translate(0 0)" clip-path="url(#clip-path)">
      <path id="Path_6" data-name="Path 6" d="M3.472,22.551h0a3.3,3.3,0,0,0,3.292-3.122l.018-.348A148.762,148.762,0,0,0,6.768,3.117,3.3,3.3,0,0,0,3.477,0h0A3.3,3.3,0,0,0,.178,3.152q-.357,8.12,0,16.248a3.3,3.3,0,0,0,3.294,3.152" transform="translate(0 0)" fill="#06f"/>
      <path id="Path_7" data-name="Path 7" d="M35.589,22.551h0a3.3,3.3,0,0,0,3.292-3.122l.018-.348a148.682,148.682,0,0,0-.013-15.963A3.3,3.3,0,0,0,35.595,0h-.005A3.3,3.3,0,0,0,32.3,3.152q-.357,8.12,0,16.248a3.3,3.3,0,0,0,3.293,3.152" transform="translate(-22.089 0)" fill="#06f"/>
    </g>
  </g>
</svg>
