<svg xmlns="http://www.w3.org/2000/svg" width="369.012" height="302.715" viewBox="0 0 369.012 302.715"><defs><style>.a{fill:#eff1f6;}</style></defs><path class="a" d="M-19806.352,16907.973c-2.9,0,4.1-47.441-21.5-71.59s-13.523-85.973,39.121-89.354,62.791,42.021,115.438,14.973,73.414-92.252,123.162-73.9,71,71,20.768,99.979c-32.949,19.01-39.5,42.031-21.25,44.436,9.355,1.232,35.883-8.961,46.85-15.937,31.877-20.287,62.295,51.717-26.674,82.977s128.043,40.875-4.809,86.563c-33.062-.6-195.969,2.4-241.656,1.2C-19842.422,16979.508-19806.352,16907.973-19806.352,16907.973Z" transform="translate(19840.781 -16684.896)"/></svg>