<svg xmlns="http://www.w3.org/2000/svg" width="30.6" height="40.17" viewBox="0 0 40.771 53.557">
  <g id="Group_878" data-name="Group 878" transform="translate(-467.562 -755.916)">
    <path id="Path_341" data-name="Path 341" d="M477.481,771.566l-6.084,3.512a3.67,3.67,0,0,0-1.835,3.177v16.994a3.67,3.67,0,0,0,1.835,3.177l14.716,8.5a3.671,3.671,0,0,0,3.669,0l14.717-8.5a3.669,3.669,0,0,0,1.834-3.177V778.255a3.669,3.669,0,0,0-1.834-3.177l-6.559-3.786" fill="none" stroke="#098b41" stroke-linecap="round" stroke-linejoin="round" stroke-width="4"/>
    <circle id="Ellipse_477" data-name="Ellipse 477" cx="4.407" cy="4.407" r="4.407" transform="translate(483.524 778.986)" fill="none" stroke="#098b41" stroke-linecap="round" stroke-linejoin="round" stroke-width="4"/>
    <path id="Path_342" data-name="Path 342" d="M497.213,802.5c.03-.3.046-.614.046-.927a9.258,9.258,0,0,0-18.517,0q0,.425.038.838" fill="none" stroke="#098b41" stroke-linecap="round" stroke-linejoin="round" stroke-width="4"/>
    <path id="Path_343" data-name="Path 343" d="M495.249,763.271l-4.3-1.055a.657.657,0,0,1-.395-.28l-2.415-3.721a.658.658,0,0,0-1.1,0l-2.414,3.721a.657.657,0,0,1-.395.28l-4.3,1.055a.658.658,0,0,0-.336,1.073l2.874,3.262a.663.663,0,0,1,.163.474l-.293,4.849a.657.657,0,0,0,.931.637l4.045-1.86a.658.658,0,0,1,.549,0l4.046,1.86a.658.658,0,0,0,.931-.637l-.293-4.849a.658.658,0,0,1,.163-.474l2.874-3.262A.658.658,0,0,0,495.249,763.271Z" fill="none" stroke="#098b41" stroke-linecap="round" stroke-linejoin="round" stroke-width="4"/>
  </g>
</svg>
